<?xml version="1.0" standalone="no"?>
<!DOCTYPE svg PUBLIC "-//W3C//DTD SVG 1.1//EN" "http://www.w3.org/Graphics/SVG/1.1/DTD/svg11.dtd" >
<svg>
<metadata>
Created by FontForge 20120731 at Thu Aug  7 00:13:22 2014
 By World Wide Web Server
 (C) Copyright 1992, 2002 The Monotype Corporation plc. All Rights Reserved. 
</metadata>
<defs>
<font id="CantoriaMTStd" horiz-adv-x="542" >
  <font-face 
    font-family="Cantoria MT Std"
    font-weight="400"
    font-stretch="normal"
    units-per-em="1000"
    panose-1="2 3 5 5 4 2 5 3 3 4"
    ascent="730"
    descent="-270"
    x-height="433"
    cap-height="710"
    bbox="-181 -250 1205 955"
    underline-thickness="50"
    underline-position="-50"
    stemh="52"
    stemv="68"
    unicode-range="U+0020-FB02"
  />
<missing-glyph horiz-adv-x="500" 
d="M0 0v700h500v-700h-500zM250 395l170 255h-340zM280 350l170 -255v510zM80 50h340l-170 255zM50 605v-510l170 255z" />
    <glyph glyph-name="f_i" unicode="fi" 
d="M97 433v30c1 99 16 168 63 216c35 35 84 54 142 54c59 0 96 -23 139 -58l-29 -92l-18 3c-2 52 -36 95 -102 95c-30 0 -63 -7 -92 -37c-30 -30 -37 -84 -37 -121v-90h180c8 0 63 3 90 16l14 -1v-378c0 -23 5 -48 32 -55v-15h-135v15c27 5 36 24 36 49v262
c0 34 -19 54 -47 54h-170v-304c0 -23 5 -56 34 -61v-15h-136v15c22 4 35 22 35 45v320h-80v53h81z" />
    <glyph glyph-name="f_l" unicode="fl" 
d="M382 433v201c-19 32 -52 47 -90 47c-32 0 -67 -11 -90 -33c-31 -31 -39 -81 -39 -145v-70h219zM17 433h81c0 73 2 184 60 243c37 37 85 57 146 57c40 0 76 -14 106 -35l23 35h16v-672c0 -24 11 -41 31 -46v-15h-135v15c23 3 37 25 37 49v317h-218v-309
c0 -26 6 -50 34 -57v-15h-137v15c25 5 36 26 36 56v310h-80v52z" />
    <glyph glyph-name=".notdef" horiz-adv-x="500" 
d="M0 0v700h500v-700h-500zM250 395l170 255h-340zM280 350l170 -255v510zM80 50h340l-170 255zM50 605v-510l170 255z" />
    <glyph glyph-name="space" unicode=" " horiz-adv-x="240" 
 />
    <glyph glyph-name="exclam" unicode="!" horiz-adv-x="302" 
d="M131 182l-17 536h84l-29 -536h-38zM95 36v15c16 14 36 36 47 50h17c11 -14 30 -37 48 -52v-12c-20 -17 -33 -32 -50 -51h-13c-12 14 -36 39 -49 50z" />
    <glyph glyph-name="quotedbl" unicode="&#x22;" horiz-adv-x="500" 
d="M171 440h-22l-35 194c-3 13 -4 25 -4 34c0 36 19 57 50 57s50 -21 50 -57c0 -9 -1 -21 -4 -34zM351 440h-22l-35 194c-3 13 -4 25 -4 34c0 36 19 57 50 57s50 -21 50 -57c0 -9 -1 -21 -4 -34z" />
    <glyph glyph-name="numbersign" unicode="#" horiz-adv-x="667" 
d="M46 444v43h164l43 203h42l-43 -203h223l42 203h43l-43 -203h104v-43h-112l-42 -199h154v-43h-163l-41 -202h-44l43 202h-223l-42 -202h-43l42 202h-104v43h113l42 199h-155zM466 444h-223l-41 -199h223z" />
    <glyph glyph-name="dollar" unicode="$" horiz-adv-x="521" 
d="M234 439v213c-61 -6 -103 -52 -103 -99c0 -50 30 -82 103 -114zM284 332v-279c70 6 128 61 128 138c0 54 -39 98 -128 141zM234 704v39h50v-39c74 -3 126 -27 172 -79l-60 -81l-13 7c5 64 -51 99 -98 101v-237c144 -72 198 -122 198 -220c-1 -127 -104 -189 -199 -195
v-113h-52v114c-85 6 -130 26 -194 77l41 98l12 -5c5 -66 62 -109 141 -119v305c-99 48 -171 100 -171 188c0 90 76 149 173 159z" />
    <glyph glyph-name="percent" unicode="%" horiz-adv-x="844" 
d="M205 688c-64 0 -102 -52 -102 -109c0 -75 46 -143 114 -143c54 0 102 39 102 107c0 71 -38 145 -114 145zM216 730c97 0 167 -73 167 -168c0 -94 -74 -168 -179 -168c-98 0 -164 74 -164 167c0 105 80 169 176 169zM185 -44l410 774h56l-410 -774h-56zM634 310
c106 0 170 -77 170 -166c0 -107 -84 -169 -177 -169c-102 0 -170 70 -170 164c0 98 77 171 177 171zM625 268c-66 0 -105 -54 -105 -113c0 -23 14 -137 114 -137c61 0 106 36 106 102c0 69 -31 148 -115 148z" />
    <glyph glyph-name="ampersand" unicode="&#x26;" horiz-adv-x="885" 
d="M824 233h-217c1 -152 -95 -252 -237 -252c-199 0 -264 149 -264 245c0 118 62 208 191 238c-74 19 -123 64 -123 136c0 81 63 128 135 128c37 0 62 -10 86 -22c11 8 20 15 26 19l12 1l14 -121h-9c-28 41 -56 76 -112 76c-47 0 -85 -31 -85 -83c0 -65 60 -108 153 -110
v-52c-127 0 -213 -76 -213 -200c0 -103 78 -193 204 -193c133 0 175 113 170 191h-200c-21 0 -36 -10 -45 -32h-11l16 91h456c16 0 34 13 39 34h14v-94z" />
    <glyph glyph-name="quoteright" unicode="&#x2019;" horiz-adv-x="302" 
d="M98 667l-4 16c19 16 35 34 50 50h21c22 -23 36 -56 37 -87c-1 -58 -47 -109 -95 -146l-19 22c24 21 51 59 51 95c0 29 -11 44 -41 50z" />
    <glyph glyph-name="parenleft" unicode="(" horiz-adv-x="344" 
d="M323 -183l-30 -28c-110 121 -198 287 -198 481c0 143 67 328 201 462l28 -30c-124 -149 -157 -294 -157 -421c0 -170 42 -311 156 -464z" />
    <glyph glyph-name="parenright" unicode=")" horiz-adv-x="344" 
d="M50 -211l-27 30c88 113 155 238 155 426c0 162 -44 310 -158 459l30 28c130 -131 200 -321 200 -468c0 -127 -43 -314 -200 -475z" />
    <glyph glyph-name="asterisk" unicode="*" horiz-adv-x="479" 
d="M227 543l-25 175h71l-24 -172l9 -5l139 110l38 -64l-165 -63v-14l165 -64l-36 -64l-140 110l-10 -6l23 -173h-70l24 174l-10 5l-134 -108l-38 61l163 67v10l-163 64l37 63l139 -108z" />
    <glyph glyph-name="plus" unicode="+" horiz-adv-x="667" 
d="M72 240v43h240v240h43v-240h240v-43h-240v-240h-43v240h-240z" />
    <glyph glyph-name="comma" unicode="," horiz-adv-x="302" 
d="M93 35l-3 15c19 17 35 32 52 51h18c23 -19 37 -53 37 -87c0 -59 -50 -111 -95 -146l-18 22c24 25 52 60 52 97c0 31 -22 50 -43 48z" />
    <glyph glyph-name="hyphen" unicode="-" horiz-adv-x="375" 
d="M37 187v61h301v-61h-301z" />
    <glyph glyph-name="period" unicode="." horiz-adv-x="302" 
d="M93 37v13c18 19 33 32 49 52h15c17 -17 32 -34 51 -52v-14c-18 -13 -39 -37 -51 -50h-14c-16 18 -34 34 -50 51z" />
    <glyph glyph-name="slash" unicode="/" horiz-adv-x="396" 
d="M35 -105l272 839h54l-274 -839h-52z" />
    <glyph glyph-name="zero" unicode="0" 
d="M272 727c107 0 213 -106 213 -373c0 -241 -79 -373 -213 -373c-85 0 -215 72 -215 381c0 102 22 242 90 311c27 27 74 54 125 54zM284 41c99 0 129 110 129 260c0 92 -9 264 -80 335c-16 16 -40 32 -76 32c-112 0 -128 -170 -128 -262c0 -88 10 -262 80 -332
c19 -20 40 -33 75 -33z" />
    <glyph glyph-name="one" unicode="1" horiz-adv-x="396" 
d="M112 652v13c33 11 74 35 105 62h15v-652c0 -41 19 -59 53 -62v-13h-172v14c35 0 51 22 51 50v522c0 38 -12 62 -52 66z" />
    <glyph glyph-name="two" unicode="2" 
d="M166 501l-7 -9c-29 16 -56 29 -84 47c0 92 86 189 196 189c123 0 201 -78 201 -184c0 -62 -34 -128 -82 -184c-34 -41 -63 -72 -129 -143l-137 -147h239c41 0 81 10 102 42h15l-25 -112h-410v56l122 136c46 55 106 124 149 176c49 60 80 109 80 172
c0 89 -68 134 -131 134c-61 0 -123 -45 -123 -108c0 -22 8 -45 24 -65z" />
    <glyph glyph-name="three" unicode="3" 
d="M152 551l-66 59c18 66 87 116 175 116c98 0 173 -65 173 -156c0 -79 -53 -129 -103 -147c95 -13 155 -86 155 -189c0 -134 -85 -253 -245 -253c-90 0 -146 37 -185 73c3 8 31 76 41 89h10c11 -73 66 -111 136 -111c102 0 168 85 168 176c0 170 -118 174 -213 174v48
c58 0 160 38 160 138c0 59 -41 108 -111 108c-49 0 -96 -32 -96 -82c0 -12 3 -25 9 -40z" />
    <glyph glyph-name="four" unicode="4" 
d="M318 261v326l-231 -326h231zM29 272l320 456h44v-467h19c20 0 53 19 63 53h13l-15 -123h-14c0 8 -11 16 -26 16h-40v-138c0 -25 14 -51 37 -53v-16h-146v14c19 3 35 19 35 40v153h-290v65z" />
    <glyph glyph-name="five" unicode="5" 
d="M143 709h250c17 0 51 7 69 19l13 -10l-58 -79h-227l-21 -195c15 11 36 20 57 26s43 9 59 9c104 0 196 -84 196 -219c0 -178 -109 -279 -238 -279c-78 0 -143 27 -194 69c4 14 30 76 37 90l11 -1c20 -84 89 -106 143 -106c108 0 167 100 167 214c0 112 -67 175 -145 175
c-53 0 -78 -21 -113 -54h-41z" />
    <glyph glyph-name="six" unicode="6" 
d="M219 333l-25 40c33 19 69 44 122 44c114 0 178 -97 178 -198c0 -97 -58 -237 -221 -237c-121 0 -225 99 -225 263c0 120 55 223 115 301c55 71 118 133 187 185l31 -39c-154 -133 -259 -273 -259 -441c0 -136 82 -211 165 -211s137 63 137 158c0 89 -52 159 -123 159
c-30 0 -54 -10 -82 -24z" />
    <glyph glyph-name="seven" unicode="7" 
d="M77 584h-18c5 18 36 120 57 125h369v-54c-152 -212 -226 -471 -226 -584c0 -35 20 -54 41 -56v-15h-110l-10 6v56c0 69 36 212 71 293c18 51 86 183 152 281h-243c-32 0 -66 -22 -83 -52z" />
    <glyph glyph-name="eight" unicode="8" 
d="M271 672c-73 0 -121 -38 -121 -107c0 -58 56 -115 138 -153c66 31 109 81 109 140c0 58 -36 120 -126 120zM266 342c-66 -33 -138 -69 -138 -164c0 -90 66 -141 156 -141c75 0 138 44 138 123c0 64 -31 118 -156 182zM278 727c117 0 195 -75 195 -168
c0 -78 -44 -130 -126 -179c101 -59 147 -117 147 -205c0 -121 -93 -194 -217 -194c-161 0 -225 103 -225 187c0 91 50 148 160 205c-54 35 -133 89 -133 180c0 103 90 174 199 174z" />
    <glyph glyph-name="nine" unicode="9" 
d="M327 372l25 -36c-42 -32 -85 -50 -134 -50c-38 0 -86 20 -123 57c-29 28 -50 84 -50 142c0 138 99 235 224 235c168 0 225 -164 225 -265c0 -93 -29 -176 -86 -262c-53 -82 -131 -159 -205 -216l-30 29v7c67 65 137 146 168 198c52 86 77 163 77 232
c0 122 -75 221 -166 221c-65 0 -139 -50 -139 -153c0 -94 48 -167 129 -167c37 0 68 20 85 28z" />
    <glyph glyph-name="colon" unicode=":" horiz-adv-x="302" 
d="M93 383v15c19 16 32 32 47 50h21c15 -19 29 -34 49 -50v-13c-14 -11 -37 -31 -52 -51h-16c-11 13 -33 36 -49 49zM93 36v13c17 15 39 38 51 53h15c12 -14 34 -40 51 -51v-16c-19 -14 -39 -33 -51 -49h-16c-11 14 -34 38 -50 50z" />
    <glyph glyph-name="semicolon" unicode=";" horiz-adv-x="302" 
d="M93 382v15c18 16 32 31 49 50h16c15 -19 32 -34 51 -52v-14c-20 -15 -34 -31 -51 -49h-17c-16 20 -32 33 -48 50zM96 35l-4 16c19 16 35 32 52 50h19c18 -16 37 -51 37 -83c0 -57 -43 -109 -96 -150l-17 23c25 28 51 61 51 98c0 27 -19 46 -42 46z" />
    <glyph glyph-name="less" unicode="&#x3c;" horiz-adv-x="667" 
d="M595 69v-48l-523 223v38l523 221v-47l-466 -193z" />
    <glyph glyph-name="equal" unicode="=" horiz-adv-x="667" 
d="M72 353v43h523v-43h-523zM72 127v43h523v-43h-523z" />
    <glyph glyph-name="greater" unicode="&#x3e;" horiz-adv-x="667" 
d="M72 456v47l523 -222v-39l-523 -221v47l466 194z" />
    <glyph glyph-name="question" unicode="?" horiz-adv-x="448" 
d="M132 532l-84 64c28 82 83 136 166 136c97 0 163 -63 163 -156c0 -50 -25 -118 -54 -161c-59 -86 -101 -142 -105 -242h-36c0 196 126 259 126 392c0 68 -43 116 -101 116c-48 0 -86 -45 -86 -84c0 -18 7 -36 20 -54zM144 36v14c12 12 37 36 46 50h14
c18 -20 33 -35 51 -50v-11c-14 -13 -39 -36 -51 -53h-13c-14 16 -26 34 -47 50z" />
    <glyph glyph-name="at" unicode="@" horiz-adv-x="721" 
d="M464 524l59 9l-67 -234c-6 -22 -13 -42 -13 -62c0 -18 13 -26 30 -26c37 0 162 67 162 242c0 127 -97 226 -242 226c-177 0 -338 -128 -338 -353c0 -140 117 -296 301 -296c141 0 250 70 308 204h32c-52 -142 -178 -234 -338 -234c-187 0 -333 147 -333 335
c0 212 157 374 364 374c142 0 276 -88 276 -261c0 -146 -104 -270 -216 -270c-43 0 -61 19 -61 57c0 14 2 25 7 53c-33 -39 -90 -109 -148 -109c-41 0 -70 38 -70 93c0 107 117 263 210 263c34 0 56 -19 64 -53zM390 516c-76 0 -154 -175 -154 -233c0 -34 19 -58 45 -58
c58 0 116 95 123 110c16 32 33 95 33 123c0 36 -18 58 -47 58z" />
    <glyph glyph-name="A" unicode="A" horiz-adv-x="781" 
d="M536 293l-148 311l-146 -311h294zM73 77l305 653h34l317 -668c14 -31 27 -43 46 -47v-15h-149v15c16 4 23 12 23 24c0 9 -3 20 -10 34l-76 160h-349l-69 -151c-7 -15 -12 -28 -12 -39c0 -12 6 -21 24 -28v-15h-138v15c32 10 38 28 54 62z" />
    <glyph glyph-name="B" unicode="B" horiz-adv-x="646" 
d="M182 649v-588h167c165 0 172 100 172 140c0 166 -188 166 -231 166h-70v48h74c83 0 179 25 179 127c0 87 -79 107 -151 107h-140zM66 694l-1 15h270c105 0 215 -35 215 -159c0 -101 -67 -143 -154 -158c120 -7 206 -78 206 -193c0 -129 -99 -199 -218 -199h-315v14
c19 5 34 21 34 41v593c0 23 -14 42 -37 46z" />
    <glyph glyph-name="C" unicode="C" horiz-adv-x="771" 
d="M707 208l34 -21c-60 -105 -154 -206 -328 -206c-214 0 -358 175 -358 376c0 108 46 205 106 265c55 55 136 106 251 106c95 0 155 -33 185 -49c12 10 24 20 34 31h15l40 -174h-16c-61 92 -154 135 -247 135c-75 0 -137 -21 -195 -79c-67 -67 -89 -151 -89 -225
c0 -168 112 -325 303 -325c112 0 194 59 265 166z" />
    <glyph glyph-name="D" unicode="D" horiz-adv-x="750" 
d="M182 647v-587h107c112 0 193 21 260 87c54 54 77 133 77 212c0 143 -92 288 -284 288h-160zM103 59v587c0 20 -15 43 -36 49v15h274c245 0 366 -165 366 -353c0 -246 -184 -357 -366 -357h-273v15c20 3 35 23 35 44z" />
    <glyph glyph-name="E" unicode="E" horiz-adv-x="656" 
d="M60 695v15h487l42 -106h-17c-19 23 -46 44 -111 44h-285v-224h329c21 0 43 15 46 36h14v-132h-14c-5 21 -21 35 -46 35h-329v-302h295c62 0 84 16 110 46h18l-42 -107h-495v15c21 5 35 23 35 38v591c0 23 -12 43 -37 51z" />
    <glyph glyph-name="F" unicode="F" horiz-adv-x="594" 
d="M58 709l1 1h456l41 -104h-17c-19 26 -53 43 -89 43h-278v-235h303c22 0 36 11 45 35h14v-132h-14c-4 23 -25 37 -48 37h-300v-283c0 -26 7 -48 37 -56v-15h-149v15c20 5 33 20 33 40v595c0 22 -14 39 -35 45v14z" />
    <glyph glyph-name="G" unicode="G" horiz-adv-x="771" 
d="M701 310v-221c-86 -74 -184 -108 -277 -108c-234 0 -372 176 -372 370c0 206 157 377 372 377c86 0 140 -19 191 -52c9 12 14 21 19 33h18l33 -165l-16 -1c-70 91 -160 131 -247 131c-168 0 -288 -146 -288 -316c0 -188 139 -314 296 -314c70 0 131 22 191 62v203
c0 25 -12 43 -37 50v13h153v-14c-17 -5 -36 -19 -36 -48z" />
    <glyph glyph-name="H" unicode="H" horiz-adv-x="875" 
d="M661 695v15h153v-15c-25 -5 -37 -24 -37 -44v-589c0 -24 11 -42 36 -47v-15h-152v15c25 4 37 23 37 43v310h-522v-308c0 -22 12 -41 36 -45v-15h-151v15c22 5 36 20 36 41v586c0 29 -10 45 -35 53v15h151v-15c-27 -8 -37 -25 -37 -50v-217h522v220c0 24 -12 41 -37 47z
" />
    <glyph glyph-name="I" unicode="I" horiz-adv-x="292" 
d="M70 695v15h152v-15c-25 -5 -36 -21 -36 -45v-587c0 -26 14 -43 36 -48v-15h-151v15c22 7 36 22 36 45v584c0 24 -10 44 -37 51z" />
    <glyph glyph-name="J" unicode="J" horiz-adv-x="490" 
d="M279 695v15h152v-15c-31 -9 -36 -34 -36 -55v-421c0 -182 -100 -238 -197 -238c-92 0 -156 45 -206 132l69 89l16 -9c-6 -16 -8 -32 -8 -46c0 -62 51 -108 117 -108c127 0 130 110 130 189v412c0 23 -9 49 -37 55z" />
    <glyph glyph-name="K" unicode="K" horiz-adv-x="646" 
d="M67 695v15h151l1 -15c-24 -8 -37 -26 -37 -50v-226l265 226c15 13 23 25 23 34s-7 15 -21 16v15h162v-15c-29 -10 -75 -45 -94 -61l-247 -213c65 -32 123 -61 189 -127c120 -120 137 -258 194 -279v-15h-163v15c16 2 28 13 28 30c0 32 -41 140 -130 229
c-46 46 -136 105 -206 123v-332c0 -20 14 -42 38 -50v-15h-151v15c24 6 34 25 34 47v582c0 23 -10 44 -36 51z" />
    <glyph glyph-name="L" unicode="L" horiz-adv-x="604" 
d="M48 695v15h153v-15c-24 -7 -37 -23 -37 -49v-587h292c58 0 86 17 110 55h17l-32 -114h-500v15c19 2 34 20 34 36v598c0 24 -14 41 -37 46z" />
    <glyph glyph-name="M" unicode="M" horiz-adv-x="938" 
d="M468 239l233 471h156v-15c-40 -3 -43 -26 -40 -64l38 -553c3 -46 14 -58 41 -63v-15h-155v15c32 6 38 27 35 69l-40 555l-268 -540h-16l-274 534l-35 -545c-3 -49 5 -69 34 -73v-15h-136v15c24 5 38 20 40 50l35 555c2 40 3 69 -44 75v15h158z" />
    <glyph glyph-name="N" unicode="N" horiz-adv-x="844" 
d="M63 695v15h123l494 -553v494c0 27 -16 37 -41 44v15h142v-15c-29 -6 -40 -22 -40 -49v-646h-26l-549 615v-537c0 -39 13 -60 43 -63v-15h-143v15c20 4 38 17 38 43v584c0 23 -6 45 -41 53z" />
    <glyph glyph-name="O" unicode="O" horiz-adv-x="865" 
d="M430 -24c-258 0 -383 209 -383 372c0 211 169 386 392 386c238 0 380 -190 380 -377c0 -205 -160 -381 -389 -381zM445 34c83 0 163 40 212 89c55 55 83 122 83 220c0 141 -120 332 -317 332c-135 0 -298 -109 -298 -300c0 -92 39 -183 108 -252c58 -59 124 -89 212 -89z
" />
    <glyph glyph-name="P" unicode="P" horiz-adv-x="604" 
d="M65 695v15h263c128 0 244 -59 244 -196c0 -191 -214 -191 -272 -191c-28 0 -56 1 -81 3v51c114 0 271 -1 271 139c0 76 -56 134 -171 134h-137v-584c0 -24 11 -44 35 -51v-15h-149v15c24 8 35 22 35 46v581c0 25 -12 49 -38 53z" />
    <glyph glyph-name="Q" unicode="Q" horiz-adv-x="865" 
d="M425 670c-139 0 -298 -106 -298 -298c0 -107 46 -190 110 -253c56 -57 127 -85 208 -85c95 0 167 44 210 88c50 50 82 110 82 211c0 167 -134 337 -312 337zM780 -130l-108 -47c-103 29 -193 99 -236 152c-250 -4 -386 198 -386 365c0 248 197 391 384 391
c246 0 382 -200 382 -377c0 -131 -74 -306 -282 -364c59 -70 137 -107 197 -107h46z" />
    <glyph glyph-name="R" unicode="R" horiz-adv-x="656" 
d="M67 695v15h291c86 0 202 -51 202 -180c0 -119 -85 -175 -213 -180c119 -67 176 -141 244 -266c21 -38 37 -65 59 -69v-15h-162v15c22 5 26 17 26 31c0 70 -140 264 -292 308v44h78c67 0 116 14 146 44c22 21 33 50 33 86c0 76 -65 121 -156 121h-140v-577
c0 -28 7 -55 36 -57v-15h-151v15c25 6 36 25 36 52v572c0 32 -10 50 -37 56z" />
    <glyph glyph-name="S" unicode="S" horiz-adv-x="583" 
d="M55 159l19 1c48 -75 137 -120 218 -120c97 0 163 56 163 134c0 181 -378 165 -378 385c0 91 70 168 200 168c87 0 132 -23 159 -39l24 30h15l29 -152h-19c-51 69 -123 103 -199 103c-90 0 -139 -44 -139 -102c0 -159 379 -143 379 -388c0 -55 -34 -197 -223 -197
c-64 0 -110 14 -156 40l-22 -32h-16z" />
    <glyph glyph-name="T" unicode="T" horiz-adv-x="750" 
d="M5 604l53 106h635l52 -104h-18c-21 26 -55 43 -85 43h-227v-582c0 -23 11 -46 39 -52v-15h-152v15c21 6 34 19 34 42v592h-215c-48 0 -79 -19 -99 -45h-17z" />
    <glyph glyph-name="U" unicode="U" horiz-adv-x="760" 
d="M571 695v15h143v-15c-25 -6 -40 -21 -40 -48v-382c0 -174 -113 -285 -289 -285c-139 0 -301 66 -301 305v360c0 23 -14 42 -37 50v15h155v-15c-31 -7 -39 -32 -39 -55v-343c0 -84 18 -148 61 -190c40 -41 102 -66 174 -66c63 0 120 24 154 58c45 45 61 95 61 175v373
c0 27 -15 43 -42 48z" />
    <glyph glyph-name="V" unicode="V" horiz-adv-x="740" 
d="M587 695v15h141v-15c-35 -11 -44 -41 -61 -81l-271 -633h-40l-279 624c-20 44 -36 83 -64 90v15h155v-15c-15 0 -29 -13 -29 -33c0 -7 2 -15 6 -24l239 -533l222 525c5 11 7 22 7 32c0 18 -8 31 -26 33z" />
    <glyph glyph-name="W" unicode="W" horiz-adv-x="1125" 
d="M499 695v15h152v-15c-25 -2 -32 -10 -32 -23c0 -8 3 -17 7 -27l191 -518l174 503c5 14 9 26 9 36c0 14 -7 25 -28 29v15h135v-15c-23 0 -44 -38 -53 -65l-223 -649h-44l-155 425c-24 65 -45 130 -67 195c-23 -71 -46 -139 -73 -213l-142 -407h-46l-232 643
c-10 29 -26 62 -54 71v15h158v-15c-21 1 -29 -17 -29 -35c0 -7 1 -13 3 -19l185 -519l181 514c4 12 7 22 7 30c0 12 -6 21 -24 29z" />
    <glyph glyph-name="X" unicode="X" horiz-adv-x="719" 
d="M35 695v15h177v-15c-18 0 -27 -5 -27 -14c0 -6 2 -12 8 -20l172 -226l176 224c5 7 9 14 9 20c0 8 -6 14 -26 16v15h152v-15c-23 0 -54 -31 -75 -57l-198 -256l219 -290c21 -28 59 -76 93 -77v-15h-184v15c23 0 33 5 33 15c0 8 -5 18 -14 30l-195 260l-203 -261
c-8 -9 -11 -18 -11 -25c0 -12 9 -19 28 -19v-15h-164v15c28 -1 52 24 85 68l225 287l-186 250c-28 37 -63 74 -94 75z" />
    <glyph glyph-name="Y" unicode="Y" horiz-adv-x="688" 
d="M4 695v15h166v-15c-16 -3 -25 -11 -25 -21c0 -6 3 -13 8 -19l207 -282l187 268c7 10 13 23 13 34s-6 20 -26 20v15h150v-15c-29 -6 -56 -40 -70 -60l-226 -329v-244c0 -26 16 -43 37 -47v-15h-151v15c23 7 35 27 35 44v255l-243 331c-18 24 -39 53 -62 50z" />
    <glyph glyph-name="Z" unicode="Z" horiz-adv-x="625" 
d="M37 605l28 105h524v-18l-448 -632h356c37 0 82 18 97 52h19l-29 -112h-567v22l448 627h-338c-30 0 -55 -18 -72 -45z" />
    <glyph glyph-name="bracketleft" unicode="[" horiz-adv-x="313" 
d="M70 -186v895h213v-46h-145v-803h144v-46h-212z" />
    <glyph glyph-name="backslash" unicode="\" horiz-adv-x="396" 
d="M89 734l272 -839h-52l-274 839h54z" />
    <glyph glyph-name="bracketright" unicode="]" horiz-adv-x="313" 
d="M30 663v46h213v-895h-213v46h145v803h-145z" />
    <glyph glyph-name="asciicircum" unicode="^" horiz-adv-x="469" 
d="M229 647h14l208 -350h-47l-171 286l-169 -286h-46z" />
    <glyph glyph-name="underscore" unicode="_" horiz-adv-x="500" 
d="M0 -75h500v-50h-500v50z" />
    <glyph glyph-name="quoteleft" unicode="&#x2018;" horiz-adv-x="302" 
d="M197 733l17 -22c-22 -24 -51 -58 -51 -95c0 -22 7 -46 41 -51l4 -15c-19 -17 -34 -34 -51 -50h-19c-23 25 -38 50 -38 87c0 58 49 111 97 146z" />
    <glyph glyph-name="a" unicode="a" horiz-adv-x="490" 
d="M341 86l-11 156c-96 -9 -177 -24 -209 -56c-21 -21 -27 -43 -27 -63c0 -53 39 -89 99 -89c49 0 109 28 148 52zM85 332l-22 74c24 14 86 40 153 40c115 0 167 -55 178 -169l19 -179c2 -27 8 -56 41 -56c7 0 15 1 24 4l7 -36c-15 -9 -45 -18 -61 -18c-41 0 -58 20 -71 47
c-41 -22 -92 -53 -184 -53c-106 0 -142 66 -142 133c0 41 14 72 41 98c53 53 170 64 254 74c-6 74 -50 104 -108 104c-68 0 -105 -28 -116 -62z" />
    <glyph glyph-name="b" unicode="b" horiz-adv-x="531" 
d="M130 339v-220c0 -83 122 -85 130 -85c64 0 165 50 165 186c0 65 -38 174 -162 174c-54 0 -103 -29 -133 -55zM29 643v12c32 19 65 46 90 78h11v-346c37 29 88 61 155 61c121 0 211 -100 211 -216c0 -141 -95 -247 -245 -247c-76 0 -148 33 -215 90v13c19 4 27 20 27 40
v458c0 23 -4 48 -34 57z" />
    <glyph glyph-name="c" unicode="c" horiz-adv-x="479" 
d="M421 123l35 -35c-62 -71 -123 -102 -199 -102c-138 0 -220 108 -220 224c0 150 105 235 228 235c73 0 117 -26 172 -70l-35 -87l-15 2c-16 61 -56 104 -136 104c-72 0 -146 -57 -146 -171c0 -105 71 -178 158 -178c49 0 101 22 158 78z" />
    <glyph glyph-name="d" unicode="d" horiz-adv-x="531" 
d="M397 87v240c-50 52 -92 70 -140 70c-100 0 -155 -84 -155 -184c0 -95 65 -176 156 -176c44 0 92 15 139 50zM361 641v11c40 25 70 52 90 78h14v-605c0 -25 13 -45 36 -49v-11c-44 -27 -65 -50 -91 -79h-14v52c-29 -23 -83 -52 -147 -52c-133 0 -220 103 -220 218
c0 144 107 241 224 241c53 0 99 -14 144 -39v186c0 23 -15 42 -36 49z" />
    <glyph glyph-name="e" unicode="e" horiz-adv-x="500" 
d="M106 234l266 69c-21 51 -60 95 -125 95c-91 0 -146 -75 -141 -164zM426 133l35 -29c-59 -81 -126 -118 -209 -118c-133 0 -217 98 -217 234c0 144 103 226 217 226c59 0 104 -17 138 -52c48 -47 45 -82 72 -94l6 -25l-356 -92c11 -88 80 -138 151 -138
c64 0 116 31 163 88z" />
    <glyph glyph-name="f" unicode="f" horiz-adv-x="323" 
d="M102 433v58c0 173 96 239 203 239c49 0 113 -27 145 -61l-33 -83h-9c-7 62 -57 96 -112 96c-88 0 -126 -62 -126 -148v-101h153v-52h-153v-323c0 -17 11 -39 34 -43v-14h-140v15c27 5 38 25 38 82v283h-82v52h82z" />
    <glyph glyph-name="g" unicode="g" horiz-adv-x="490" 
d="M241 404c-66 0 -122 -53 -122 -117c0 -80 51 -136 126 -136c68 0 119 48 119 117c0 78 -50 136 -123 136zM59 -50l9 -5c-4 -81 82 -112 180 -112c56 0 117 6 144 33c12 12 20 26 20 39c0 8 -3 16 -10 23c-22 22 -88 22 -201 33c-72 7 -110 25 -134 62c30 28 64 69 87 98
c-44 16 -99 76 -99 154s68 172 188 172c58 0 103 -18 132 -42l20 28h93v-16c-37 -6 -60 -20 -85 -44c21 -29 30 -62 30 -93c0 -114 -97 -176 -194 -176c-17 0 -34 2 -51 5c-28 -34 -36 -51 -36 -59c0 -5 3 -8 5 -11c12 -11 61 -15 125 -19c70 -5 133 -7 173 -48
c19 -18 22 -40 22 -57c0 -32 -13 -56 -36 -79c-35 -35 -99 -47 -168 -47c-99 0 -196 24 -262 71c19 31 33 57 48 90z" />
    <glyph glyph-name="h" unicode="h" horiz-adv-x="531" 
d="M23 642v12c32 18 72 52 94 79h10v-357c49 42 109 71 180 71c50 0 97 -20 125 -48c26 -27 37 -64 37 -110v-224c0 -21 12 -42 35 -50v-15h-140v15c22 7 38 25 38 44v219c0 27 -12 62 -33 82c-22 22 -52 30 -88 30c-60 0 -107 -22 -154 -58v-270c0 -23 14 -41 35 -47v-15
h-138v15c19 1 35 24 35 46v520c0 28 -4 52 -36 61z" />
    <glyph glyph-name="i" unicode="i" horiz-adv-x="219" 
d="M66 639v15c12 8 30 25 38 37h14c8 -10 23 -27 36 -37v-18c-15 -13 -26 -24 -39 -36h-12c-9 14 -26 30 -37 39zM42 356v12c32 20 66 47 90 78h11v-373c0 -29 13 -53 34 -58v-15h-133v15c20 5 32 26 32 49v233c0 28 -7 47 -34 59z" />
    <glyph glyph-name="j" unicode="j" horiz-adv-x="219" 
d="M68 636v16c14 13 28 25 40 40h14c12 -15 23 -27 37 -39v-20c-10 -8 -25 -25 -34 -35h-20c-10 13 -27 29 -37 38zM43 354v15c34 17 66 47 89 77h14v-392c0 -72 -41 -159 -133 -266l-29 21c54 75 94 174 94 240v258c0 22 -14 44 -35 47z" />
    <glyph glyph-name="k" unicode="k" horiz-adv-x="469" 
d="M22 638v12c33 23 65 45 89 79h14v-507l160 143c17 16 28 30 28 40c0 6 -4 11 -14 15v14h126v-14c-23 -14 -65 -50 -95 -77l-67 -59c86 -61 130 -131 170 -212c13 -25 25 -45 43 -57v-15h-135v15c16 3 24 15 24 33c0 56 -72 140 -144 198l-96 -86v-100
c0 -20 14 -40 34 -45v-15h-137v15c23 5 36 23 36 49v498c0 46 -8 65 -36 76z" />
    <glyph glyph-name="l" unicode="l" horiz-adv-x="219" 
d="M39 641v10c30 20 65 45 89 81h15v-666c0 -25 14 -50 37 -51v-15h-135v15c23 8 31 20 31 46v531c0 24 -13 45 -37 49z" />
    <glyph glyph-name="m" unicode="m" horiz-adv-x="833" 
d="M34 353v15c37 23 65 45 93 80h13v-67c42 29 95 67 170 67c58 0 104 -30 129 -78c38 27 100 77 177 77c78 0 148 -48 148 -141v-253c0 -18 18 -34 36 -37v-15h-141v15c27 6 37 27 37 58v219c0 58 -42 100 -108 99c-54 0 -109 -40 -137 -69v-267c0 -20 18 -37 35 -40v-15
h-140v15c29 6 37 27 37 54v229c0 48 -35 92 -106 92c-59 0 -117 -45 -139 -67v-263c0 -24 13 -41 36 -46v-15h-141v15c23 3 37 24 37 48v255c0 20 -11 35 -36 35z" />
    <glyph glyph-name="n" unicode="n" 
d="M136 449v-68c39 32 104 69 174 69c51 0 102 -19 130 -47c26 -27 37 -64 37 -109v-226c0 -26 9 -46 36 -53v-15h-142v15c27 5 38 25 38 56v196c0 44 -8 125 -122 125c-47 0 -107 -23 -152 -61v-265c0 -25 10 -46 36 -51v-15h-141v15c21 0 37 23 37 46v251
c0 22 -14 42 -37 45v14c30 15 68 47 91 78h15z" />
    <glyph glyph-name="o" unicode="o" 
d="M276 452c128 0 235 -107 235 -235c0 -151 -125 -235 -235 -235c-184 0 -246 144 -246 229c0 125 91 241 246 241zM263 401c-118 0 -163 -94 -163 -163c0 -86 63 -204 178 -204c86 0 162 57 162 161c0 89 -69 206 -177 206z" />
    <glyph glyph-name="p" unicode="p" horiz-adv-x="521" 
d="M133 340v-244c32 -31 85 -63 133 -63c84 0 161 61 161 169c0 94 -64 190 -167 190c-51 0 -92 -26 -127 -52zM133 447v-56c35 30 88 58 150 58c117 0 210 -91 210 -221c0 -80 -22 -136 -62 -176c-47 -47 -110 -66 -160 -66c-63 0 -109 23 -138 39v-165
c0 -24 17 -39 34 -43v-14h-139v14c27 4 37 28 37 58v435c0 20 -11 39 -36 47v14c28 14 63 44 89 76h15z" />
    <glyph glyph-name="q" unicode="q" horiz-adv-x="531" 
d="M393 106v238c-36 33 -85 59 -136 59c-46 0 -83 -22 -112 -52c-29 -29 -44 -72 -44 -125c0 -89 63 -172 164 -172c45 0 86 16 128 52zM392 -132v181c-39 -33 -92 -56 -148 -56c-133 0 -212 108 -212 216c0 135 97 237 225 237c63 0 113 -17 153 -44c13 16 25 30 39 44
l27 -16c-10 -26 -16 -62 -16 -83v-480c0 -21 11 -46 36 -50v-14h-140v14c25 5 36 27 36 51z" />
    <glyph glyph-name="r" unicode="r" horiz-adv-x="365" 
d="M30 356v12c37 21 72 52 94 80h11v-99c57 57 107 96 166 96c10 0 21 -1 32 -4l17 -92l-14 -5c-23 24 -39 33 -69 33c-29 0 -59 -17 -84 -37c-26 -20 -49 -41 -49 -52v-229c0 -16 15 -40 40 -44v-15h-150v15c26 5 42 21 42 55v246c0 24 -14 36 -36 40z" />
    <glyph glyph-name="s" unicode="s" horiz-adv-x="406" 
d="M50 122h16c32 -51 83 -85 143 -85c54 0 88 25 88 66c0 19 -7 33 -18 44c-33 33 -137 58 -182 103c-27 28 -35 50 -35 80c0 70 58 116 147 116c48 0 88 -12 130 -31l9 -92h-18c-26 48 -63 78 -122 78c-55 0 -83 -28 -83 -65c0 -71 146 -83 209 -145c22 -23 33 -53 33 -82
c0 -67 -56 -123 -153 -123c-67 0 -116 23 -152 40z" />
    <glyph glyph-name="t" unicode="t" horiz-adv-x="365" 
d="M25 382v33c82 6 114 60 116 148h36v-130h153v-52h-154v-219c0 -70 9 -120 69 -120c29 0 63 19 96 40l22 -39c-43 -35 -87 -57 -137 -57c-27 0 -60 7 -84 30c-25 26 -34 58 -34 135v231h-83z" />
    <glyph glyph-name="u" unicode="u" 
d="M30 354v15c32 18 65 46 89 78l15 -1v-286c0 -73 39 -117 114 -117c58 0 105 19 161 63v206c0 24 -15 42 -38 44v14c33 17 67 47 92 77l14 -1v-333c0 -20 14 -36 36 -35v-16c-38 -22 -65 -46 -91 -76h-15v68c-42 -34 -101 -68 -179 -68c-81 0 -161 45 -161 155v171
c0 23 -14 41 -37 42z" />
    <glyph glyph-name="v" unicode="v" horiz-adv-x="510" 
d="M8 420v14h136v-14c-17 -4 -28 -20 -28 -38c0 -6 1 -12 4 -18l150 -300l132 279c6 14 10 26 10 37c0 19 -10 34 -28 40v14h117v-14c-11 -13 -26 -36 -41 -65l-178 -369h-47l-192 386c-7 14 -17 34 -35 48z" />
    <glyph glyph-name="w" unicode="w" horiz-adv-x="823" 
d="M10 420v14h133v-14c-19 -4 -28 -17 -28 -33c0 -8 2 -17 6 -26l134 -295l117 280c6 12 8 23 8 33c0 18 -8 32 -24 41v14h127v-14c-17 -4 -27 -16 -27 -34c0 -8 2 -17 6 -26l132 -290l117 276c6 13 9 26 9 37c0 17 -8 30 -27 37v14h121v-14c-17 -14 -36 -43 -48 -70
l-159 -363h-47l-150 334l-141 -334h-46l-179 383c-6 14 -24 38 -34 50z" />
    <glyph glyph-name="x" unicode="x" horiz-adv-x="531" 
d="M45 420v14h136v-14c-12 -5 -18 -11 -18 -19c0 -7 4 -15 13 -24l99 -110l93 94c13 13 20 26 20 36s-7 18 -21 23v14h131v-14c-22 -17 -42 -32 -57 -47l-138 -139l165 -180c13 -15 28 -34 48 -39v-15h-161v15c15 4 22 15 22 27c0 9 -4 18 -10 25l-109 120l-102 -105
c-20 -21 -31 -36 -31 -47c0 -9 7 -16 21 -20v-15h-134v15c19 5 36 19 60 44l156 161l-131 146c-17 18 -33 38 -52 54z" />
    <glyph glyph-name="y" unicode="y" horiz-adv-x="521" 
d="M12 419v14h137v-14c-19 -7 -26 -19 -26 -33c0 -9 3 -20 9 -30l154 -279l120 249c10 21 16 39 16 54c0 19 -9 32 -29 39v14h120v-14c-14 -5 -28 -32 -36 -48l-204 -432c-15 -31 -50 -103 -82 -135h-103v24c56 17 91 33 130 105l33 67l-193 360c-10 19 -24 49 -46 59z" />
    <glyph glyph-name="z" unicode="z" horiz-adv-x="500" 
d="M58 333l33 100h361v-15l-313 -371h80c129 0 175 0 231 52h20l-47 -99h-392v17l309 368h-155c-38 0 -85 -16 -107 -52h-20z" />
    <glyph glyph-name="braceleft" unicode="{" horiz-adv-x="290" 
d="M31 276v19c55 8 94 47 94 98c0 13 -4 40 -10 68c-6 24 -9 54 -9 71c0 89 64 164 153 177v-16c-61 -16 -93 -53 -93 -108c0 -14 5 -42 10 -71c6 -28 10 -51 10 -69c0 -70 -45 -129 -121 -159c74 -30 121 -92 121 -160c0 -18 -4 -41 -10 -69c-5 -29 -10 -57 -10 -71
c0 -55 33 -92 93 -108v-16c-93 14 -153 87 -153 183c0 16 3 38 9 65c6 28 10 55 10 68c0 50 -39 90 -94 98z" />
    <glyph glyph-name="bar" unicode="|" horiz-adv-x="496" 
d="M227 -250v1000h43v-1000h-43z" />
    <glyph glyph-name="braceright" unicode="}" horiz-adv-x="290" 
d="M259 295v-19c-55 -8 -94 -48 -94 -98c0 -13 4 -40 10 -68c6 -27 9 -49 9 -65c0 -96 -60 -169 -153 -183v16c60 16 93 53 93 108c0 14 -5 42 -10 71c-6 28 -10 51 -10 69c0 68 47 130 121 160c-76 30 -121 89 -121 159c0 18 4 41 10 69c5 29 10 57 10 71
c0 55 -32 92 -93 108v16c89 -13 153 -88 153 -177c0 -17 -3 -47 -9 -71c-6 -28 -10 -55 -10 -68c0 -51 39 -90 94 -98z" />
    <glyph glyph-name="asciitilde" unicode="~" horiz-adv-x="667" 
d="M95 197h-21c3 47 11 74 35 99c20 21 50 34 76 34c21 0 46 0 187 -60c58 -25 83 -32 108 -32c53 0 86 33 92 91h21c-1 -77 -50 -133 -116 -133c-30 0 -51 5 -103 26l-81 33c-60 24 -84 31 -108 31c-49 0 -78 -29 -90 -89z" />
    <glyph glyph-name="exclamdown" unicode="&#xa1;" horiz-adv-x="302" 
d="M95 472v11c19 17 36 33 51 51h13c13 -16 31 -35 48 -48v-18c-13 -10 -37 -35 -48 -49h-15c-14 18 -35 40 -49 53zM103 -197l30 536h38l15 -536h-83z" />
    <glyph glyph-name="cent" unicode="&#xa2;" horiz-adv-x="479" 
d="M233 189v344c-93 -19 -127 -89 -127 -166c0 -90 46 -160 127 -178zM233 584v146h51v-144c60 -7 107 -31 153 -70l-33 -88l-17 3c-13 55 -46 88 -102 102v-346c53 5 96 41 135 77l35 -33c-36 -50 -90 -89 -169 -104v-144h-52v144c-112 9 -198 99 -198 228
c0 121 83 216 197 229z" />
    <glyph glyph-name="sterling" unicode="&#xa3;" horiz-adv-x="604" 
d="M77 392h91c-5 26 -31 71 -31 134c0 135 108 200 209 200c72 0 136 -30 186 -84l-67 -82l-10 5c2 8 4 16 4 23c0 51 -53 88 -117 88c-77 0 -130 -51 -130 -137c0 -44 19 -89 35 -146h194v-50h-179c4 -24 11 -59 11 -84c0 -66 -30 -157 -100 -210c57 14 102 22 150 22
c52 0 99 -20 136 -19c45 0 65 32 85 65l32 -16c-32 -82 -70 -120 -145 -120c-46 0 -120 24 -206 23c-51 0 -98 -12 -146 -24l-20 47c84 33 143 106 143 193c0 41 -8 89 -19 122h-106v50z" />
    <glyph glyph-name="fraction" unicode="&#x2044;" horiz-adv-x="135" 
d="M-181 -45l436 773h61l-440 -773h-57z" />
    <glyph glyph-name="yen" unicode="&#xa5;" horiz-adv-x="688" 
d="M390 334v-82h222v-50h-222v-140c0 -26 16 -43 37 -47v-15h-151v15c23 7 35 27 35 44v143h-207v50h207v82h-207v50h177l-194 261c-18 24 -39 53 -62 50v15h166v-15c-16 -3 -25 -11 -25 -21c0 -6 3 -13 8 -19l188 -253l164 239c7 10 13 23 13 34s-6 20 -26 20v15h150v-15
c-29 -6 -56 -40 -70 -60l-170 -251h189v-50h-222z" />
    <glyph glyph-name="florin" unicode="&#x192;" horiz-adv-x="639" 
d="M216 460l6 28c5 -2 16 -3 23 -3c24 0 44 6 58 21c29 29 24 99 90 166c24 24 88 60 186 60c47 0 54 -5 54 -14c0 -15 -20 -67 -28 -131h-42c0 3 2 16 2 27c0 50 -22 80 -53 80c-63 0 -76 -77 -100 -205h45c35 0 61 3 87 19l3 -20c-30 -24 -44 -30 -69 -30h-47
c-11 0 -18 -1 -21 -4c-14 -14 -14 -59 -41 -200l-26 -137c-18 -94 -94 -319 -277 -319c-36 0 -63 8 -71 20c8 28 22 90 25 122h38c-2 -6 -4 -24 -4 -36c0 -42 17 -70 54 -70c10 0 29 9 44 25c48 48 66 146 92 284l24 131c7 41 25 137 32 187c-28 3 -56 2 -84 -1z" />
    <glyph glyph-name="section" unicode="&#xa7;" horiz-adv-x="500" 
d="M270 144c56 0 94 37 94 95c0 52 -52 105 -100 153c-11 7 -23 8 -35 8c-56 0 -92 -41 -92 -96c0 -58 32 -93 91 -153c11 -5 24 -7 42 -7zM87 -77h18c39 -49 90 -76 147 -76c44 0 79 17 79 55c0 46 -52 89 -151 192c-74 77 -113 115 -113 197c0 95 57 160 143 158
c-28 32 -101 106 -101 168c0 70 68 116 144 116c44 0 87 -15 129 -33l8 -77v-14h-18c-34 39 -70 66 -118 66s-75 -29 -75 -54c0 -40 46 -79 116 -154c86 -91 139 -144 139 -222s-47 -146 -143 -157c62 -66 119 -119 119 -173c0 -63 -62 -126 -158 -126
c-54 0 -102 13 -151 35z" />
    <glyph glyph-name="currency" unicode="&#xa4;" horiz-adv-x="678" 
d="M140 549l61 -60c51 36 86 48 138 48s87 -12 138 -49l61 61l30 -31l-61 -60c35 -49 49 -86 49 -138c0 -53 -12 -86 -49 -137l61 -61l-30 -30l-61 61c-50 -37 -86 -50 -138 -50s-89 13 -138 49l-61 -60l-30 30l61 60c-37 50 -49 86 -49 138c0 53 13 89 49 138l-61 60z
M165 320c0 -95 78 -173 174 -173c95 0 173 78 173 173c0 96 -78 174 -173 174c-96 0 -174 -78 -174 -174z" />
    <glyph glyph-name="quotesingle" unicode="'" horiz-adv-x="302" 
d="M162 440h-22l-35 194c-3 13 -4 25 -4 34c0 36 19 57 50 57s50 -21 50 -57c0 -9 -1 -21 -4 -34z" />
    <glyph glyph-name="quotedblleft" unicode="&#x201c;" horiz-adv-x="500" 
d="M176 500h-20c-23 25 -37 55 -37 86c0 55 44 108 96 147l18 -22c-23 -24 -51 -59 -51 -96c0 -22 10 -47 41 -50l4 -15c-19 -16 -34 -34 -51 -50zM370 500h-20c-23 26 -37 55 -37 86c0 54 43 107 97 147l18 -22c-24 -25 -52 -58 -52 -95c0 -22 10 -49 40 -49l5 -16z" />
    <glyph glyph-name="guillemotleft" unicode="&#xab;" horiz-adv-x="385" 
d="M206 216l87 147h58l-87 -147l87 -146h-59zM41 216l86 147h58l-86 -147l88 -146h-59z" />
    <glyph glyph-name="guilsinglleft" unicode="&#x2039;" horiz-adv-x="219" 
d="M41 216l87 147h57l-87 -147l87 -146h-59z" />
    <glyph glyph-name="guilsinglright" unicode="&#x203a;" horiz-adv-x="219" 
d="M120 216l-86 147h58l86 -147l-86 -146h-57z" />
    <glyph glyph-name="endash" unicode="&#x2013;" horiz-adv-x="500" 
d="M-6 230v46h512v-46h-512z" />
    <glyph glyph-name="dagger" unicode="&#x2020;" horiz-adv-x="573" 
d="M236 233l30 228l-151 -15c-19 -2 -45 -8 -57 -22h-13v121h16c7 -17 36 -22 57 -24l148 -12l-10 102c-3 28 -7 62 -25 84v14h115v-17c-17 -18 -21 -41 -24 -73l-12 -110l112 10c33 3 71 2 94 26h11v-120h-18c-15 17 -45 19 -60 21l-140 15l28 -222l-23 -323
c0 -8 -1 -22 -1 -37c0 -18 1 -38 7 -49v-18h-75v19c7 13 9 31 9 51c0 16 -1 33 -2 48z" />
    <glyph glyph-name="daggerdbl" unicode="&#x2021;" horiz-adv-x="573" 
d="M237 261l31 199l-161 -16c-15 -1 -37 -9 -47 -21h-13v122h15c13 -21 49 -25 74 -27l132 -10l-9 89c-4 36 -9 80 -26 99v13h113v-18c-17 -16 -20 -43 -23 -65l-12 -119l115 11c35 3 72 6 91 27h11v-122h-15c-15 15 -34 19 -51 21l-153 17l29 -199l-34 -201l158 16
c17 2 36 5 52 23h11v-121h-15c-11 19 -49 23 -71 24l-134 10l10 -103c4 -33 11 -70 24 -80v-16h-115v16c20 17 24 48 26 72l12 112l-131 -11c-20 -2 -55 -1 -73 -23h-13v121h15c9 -15 35 -20 52 -22l150 -18z" />
    <glyph glyph-name="periodcentered" unicode="&#xb7;" horiz-adv-x="302" 
d="M95 349v14c17 15 33 32 50 50h13c13 -17 33 -34 49 -50v-15c-14 -10 -39 -34 -50 -48h-13c-17 16 -31 33 -49 49z" />
    <glyph glyph-name="paragraph" unicode="&#xb6;" horiz-adv-x="453" 
d="M225 -169v510h-14c-108 5 -166 32 -198 92c-15 28 -22 59 -22 91c0 116 81 185 220 185h212v-15c-25 -5 -36 -21 -36 -45v-818h-36v851h-90v-851h-36z" />
    <glyph glyph-name="bullet" unicode="&#x2022;" horiz-adv-x="350" 
d="M174 425c80 0 103 -31 103 -98c0 -66 -43 -90 -103 -90c-74 0 -102 32 -102 96c0 55 28 92 102 92z" />
    <glyph glyph-name="quotesinglbase" unicode="&#x201a;" horiz-adv-x="302" 
d="M145 101h19c20 -17 37 -52 37 -87c0 -62 -54 -114 -96 -146l-17 22c28 29 51 65 51 95c0 21 -9 48 -41 50l-5 15c19 17 34 31 52 51z" />
    <glyph glyph-name="quotedblbase" unicode="&#x201e;" horiz-adv-x="500" 
d="M145 101h19c20 -17 37 -52 37 -87c0 -62 -54 -114 -96 -146l-17 22c28 29 51 65 51 95c0 21 -9 48 -41 50l-5 15c19 17 34 31 52 51zM295 35l-3 16c17 15 34 30 51 50h20c21 -23 36 -49 36 -88c0 -50 -39 -102 -95 -144l-18 21c24 23 52 61 52 96c0 30 -17 48 -43 49z
" />
    <glyph glyph-name="quotedblright" unicode="&#x201d;" horiz-adv-x="500" 
d="M128 733h20c20 -21 36 -52 36 -87c0 -62 -49 -110 -94 -146l-18 21c30 31 50 62 50 96c0 21 -6 46 -41 49l-4 16c19 17 33 31 51 51zM279 666l-2 17c19 18 33 30 49 50h21c18 -20 34 -54 34 -88c0 -50 -36 -103 -92 -145l-18 22c25 24 50 57 50 96c0 31 -16 45 -42 48z
" />
    <glyph glyph-name="guillemotright" unicode="&#xbb;" horiz-adv-x="385" 
d="M285 216l-86 147h58l87 -147l-87 -146h-58zM122 216l-85 147h58l85 -147l-88 -147h-58z" />
    <glyph glyph-name="ellipsis" unicode="&#x2026;" horiz-adv-x="1000" 
d="M774 32v14c17 16 32 34 48 51h15c12 -16 36 -39 47 -46v-20c-17 -12 -35 -32 -47 -47h-13c-15 17 -30 30 -50 48zM116 32v14c17 16 32 34 48 51h15c12 -16 36 -39 47 -46v-20c-17 -12 -35 -32 -47 -47h-13c-15 17 -30 30 -50 48zM445 32v14c17 16 32 34 48 51h15
c12 -16 36 -39 47 -46v-20c-17 -12 -35 -32 -47 -47h-13c-15 17 -30 30 -50 48z" />
    <glyph glyph-name="perthousand" unicode="&#x2030;" horiz-adv-x="1232" 
d="M192 688c-64 0 -102 -52 -102 -109c0 -75 46 -143 114 -143c54 0 102 39 102 107c0 71 -38 145 -114 145zM203 730c97 0 167 -73 167 -168c0 -94 -74 -168 -179 -168c-98 0 -164 74 -164 167c0 105 80 169 176 169zM172 -44l410 774h56l-410 -774h-56zM621 310
c106 0 170 -77 170 -166c0 -107 -84 -169 -177 -169c-102 0 -170 70 -170 164c0 98 77 171 177 171zM612 268c-66 0 -105 -54 -105 -113c0 -23 14 -137 114 -137c61 0 106 36 106 102c0 69 -31 148 -115 148zM1035 310c106 0 170 -77 170 -166c0 -107 -84 -169 -177 -169
c-102 0 -170 70 -170 164c0 98 77 171 177 171zM1026 268c-66 0 -105 -54 -105 -113c0 -23 14 -137 114 -137c61 0 106 36 106 102c0 69 -31 148 -115 148z" />
    <glyph glyph-name="questiondown" unicode="&#xbf;" horiz-adv-x="448" 
d="M191 472v12c16 13 38 35 52 52h12c13 -16 31 -37 47 -50v-14c-13 -12 -36 -36 -47 -50h-12c-18 17 -32 33 -52 50zM314 -9l85 -64c-30 -85 -84 -138 -169 -138c-90 0 -159 59 -159 155c0 80 29 122 81 203c51 79 70 114 77 202h35c1 -89 -31 -163 -62 -220
c-32 -58 -63 -99 -63 -168c0 -83 47 -120 98 -120c50 0 88 41 88 86c0 17 -5 36 -19 52z" />
    <glyph glyph-name="grave" unicode="`" horiz-adv-x="333" 
d="M139 530l-155 149h116l89 -149h-50z" />
    <glyph glyph-name="acute" unicode="&#xb4;" horiz-adv-x="333" 
d="M140 531l89 147h115l-154 -147h-50z" />
    <glyph glyph-name="circumflex" unicode="&#x2c6;" horiz-adv-x="333" 
d="M10 535l107 138h90l107 -138h-51l-101 76l-99 -76h-53z" />
    <glyph glyph-name="tilde" unicode="&#x2dc;" horiz-adv-x="333" 
d="M51 551h-41c0 56 34 103 87 103c28 0 50 -10 70 -20s38 -20 57 -20c25 0 37 18 43 42h45c-3 -53 -25 -104 -87 -104c-19 0 -43 10 -65 20c-23 9 -44 19 -61 19c-29 0 -43 -21 -48 -40z" />
    <glyph glyph-name="macron" unicode="&#xaf;" horiz-adv-x="333" 
d="M22 566v54h288v-54h-288z" />
    <glyph glyph-name="breve" unicode="&#x2d8;" horiz-adv-x="333" 
d="M260 666h44c-8 -73 -63 -125 -137 -125c-73 0 -131 49 -137 125h42c20 -41 58 -62 95 -62c43 0 76 19 93 62z" />
    <glyph glyph-name="dotaccent" unicode="&#x2d9;" horiz-adv-x="333" 
d="M114 587v15c17 13 34 31 42 43h23c9 -11 27 -31 41 -41v-21c-12 -9 -32 -27 -44 -41h-18c-17 20 -28 31 -44 45z" />
    <glyph glyph-name="dieresis" unicode="&#xa8;" horiz-adv-x="333" 
d="M19 587v16c17 12 33 30 43 43h20c15 -16 28 -31 43 -43v-17c-12 -9 -32 -29 -41 -42h-21c-11 15 -29 32 -44 43zM209 587v15c17 13 34 31 42 43h23c9 -11 27 -31 41 -41v-21c-12 -9 -32 -27 -44 -41h-18c-17 20 -28 31 -44 45z" />
    <glyph glyph-name="ring" unicode="&#x2da;" horiz-adv-x="333" 
d="M142 700c56 0 100 -44 100 -99c0 -56 -44 -100 -100 -100s-100 44 -100 100c0 55 44 99 100 99zM142 651c-28 0 -51 -23 -51 -50c0 -28 23 -51 51 -51s51 23 51 51c0 27 -23 50 -51 50z" />
    <glyph glyph-name="cedilla" unicode="&#xb8;" horiz-adv-x="333" 
d="M32 -171l11 37c28 -8 67 -13 90 -13c40 0 78 13 78 48c0 33 -25 44 -58 44c-14 0 -30 -2 -47 -5l-3 9l74 38c75 -3 107 -45 107 -88c0 -51 -50 -92 -134 -92c-25 0 -85 8 -118 22z" />
    <glyph glyph-name="hungarumlaut" unicode="&#x2dd;" horiz-adv-x="333" 
d="M-36 531l89 147h115l-154 -147h-50zM164 531l89 147h115l-154 -147h-50z" />
    <glyph glyph-name="ogonek" unicode="&#x2db;" horiz-adv-x="333" 
d="M111 0h55c-18 -23 -32 -46 -32 -76c0 -35 22 -45 62 -45c20 0 53 11 85 32l11 -37c-37 -30 -87 -46 -121 -46c-44 0 -106 13 -106 84c0 31 17 63 46 88z" />
    <glyph glyph-name="caron" unicode="&#x2c7;" horiz-adv-x="333" 
d="M123 535l-111 138h50l104 -76l101 75h54l-111 -137h-87z" />
    <glyph glyph-name="emdash" unicode="&#x2014;" horiz-adv-x="1000" 
d="M-9 231v45h1018v-45h-1018z" />
    <glyph glyph-name="AE" unicode="&#xc6;" horiz-adv-x="1177" 
d="M631 646h-19l-276 -357h295v357zM513 695v15h573l42 -107h-16c-22 27 -56 42 -82 42h-317v-222h321c26 0 48 9 56 37l13 1v-134h-15c-2 17 -19 34 -35 34h-339v-302h301c31 0 77 13 104 46h18l-44 -105h-499v15c26 6 38 28 38 51v164h-342l-144 -186c-4 -6 -6 -11 -6 -15
c0 -8 7 -14 20 -14v-15h-131v15c26 6 44 37 63 60l448 578c7 10 11 18 11 24c0 11 -12 16 -38 18z" />
    <glyph glyph-name="ordfeminine" unicode="&#xaa;" horiz-adv-x="323" 
d="M227 305l-9 103c-21 0 -112 -10 -136 -35c-14 -13 -20 -27 -20 -43c0 -36 27 -59 67 -59c33 0 72 20 98 34zM56 468l-14 50c23 12 60 26 99 26c101 0 116 -65 121 -114l11 -111c3 -27 8 -42 26 -42c5 0 10 1 17 3l5 -25c-18 -7 -32 -11 -44 -11c-20 0 -32 11 -43 31
c-41 -23 -71 -36 -120 -36c-62 0 -96 34 -96 86c0 91 84 102 196 116c-4 46 -29 70 -73 70c-41 0 -66 -16 -77 -41z" />
    <glyph glyph-name="Lslash" unicode="&#x141;" horiz-adv-x="604" 
d="M287 395l-108 -76v-260h292c58 0 86 17 110 55h17l-32 -114h-500v15c19 2 34 20 34 36v213l-54 -38v74l54 38v311c0 24 -14 41 -37 46v15h153v-15c-24 -7 -37 -23 -37 -49v-253l108 75v-73z" />
    <glyph glyph-name="Oslash" unicode="&#xd8;" horiz-adv-x="865" 
d="M201 160l431 429c-64 55 -123 83 -208 83c-148 0 -297 -117 -297 -294c0 -84 27 -158 74 -218zM668 546l-430 -428c60 -57 121 -84 210 -84c110 0 294 88 294 298c0 78 -24 152 -74 214zM687 645l101 99l40 -40l-101 -99c56 -72 93 -145 93 -247
c0 -195 -155 -381 -396 -381c-97 0 -177 29 -243 87l-98 -100l-40 40l99 98c-70 85 -92 175 -92 249c0 206 166 381 390 381c111 0 191 -41 247 -87z" />
    <glyph glyph-name="OE" unicode="&#x152;" horiz-adv-x="1167" 
d="M611 75v550c-58 22 -121 35 -181 35c-179 0 -295 -126 -295 -291c0 -192 157 -322 318 -322c68 0 115 11 158 28zM1071 0h-488c-7 0 -28 -2 -54 -4c-26 -3 -57 -5 -86 -5c-234 0 -387 160 -387 367c0 127 97 358 385 358c38 0 69 -2 95 -3c25 -2 45 -4 60 -4h467l41 -103
h-15c-17 22 -53 42 -83 42h-315v-223h324c26 0 47 9 54 36h12v-131h-14c-7 21 -22 35 -45 35h-331v-305h296c39 0 87 13 110 47h16z" />
    <glyph glyph-name="ordmasculine" unicode="&#xba;" horiz-adv-x="365" 
d="M187 550c82 0 155 -71 155 -155c0 -93 -71 -157 -158 -157c-112 0 -160 91 -160 155c0 88 70 157 163 157zM177 516c-66 0 -106 -49 -106 -110c0 -68 53 -134 110 -134c102 0 115 78 115 106c0 68 -52 138 -119 138z" />
    <glyph glyph-name="ae" unicode="&#xe6;" horiz-adv-x="792" 
d="M405 232l265 70c-23 54 -62 95 -124 95c-83 0 -149 -67 -141 -165zM361 95c-17 32 -25 89 -27 142c-102 -4 -234 -20 -234 -118c0 -41 33 -86 97 -86c48 0 127 33 164 62zM91 327l-22 75c50 26 104 40 155 40c73 0 124 -30 151 -84c52 64 115 86 174 86
c63 0 112 -22 147 -57c39 -40 38 -76 65 -88l6 -24l-358 -94c18 -100 91 -138 157 -138c53 0 106 26 158 90l34 -28c-42 -64 -116 -119 -202 -119c-56 0 -115 15 -169 70c-28 -17 -118 -72 -206 -72c-112 0 -147 69 -147 134c0 28 10 65 39 94c49 48 121 61 253 76
c-4 71 -41 105 -111 105c-59 0 -100 -27 -110 -61z" />
    <glyph glyph-name="dotlessi" unicode="&#x131;" horiz-adv-x="219" 
d="M42 356v12c32 20 66 46 90 78h11v-373c0 -29 13 -53 34 -58v-15h-133v15c20 5 32 26 32 49v233c0 28 -7 47 -34 59z" />
    <glyph glyph-name="lslash" unicode="&#x142;" horiz-adv-x="219" 
d="M-4 304l80 57v231c0 24 -13 45 -37 49v10c30 20 65 45 89 81h15v-324l80 56v-61l-80 -56v-281c0 -25 14 -50 37 -51v-15h-135v15c23 8 31 20 31 46v239l-80 -56v60z" />
    <glyph glyph-name="oslash" unicode="&#xf8;" 
d="M263 402c-97 0 -161 -75 -161 -163c0 -41 11 -84 35 -118l238 234c-24 25 -57 47 -112 47zM407 315l-238 -234c33 -31 68 -47 111 -47c59 -1 163 32 163 163c0 50 -21 96 -36 118zM423 401l58 54l36 -36l-57 -54c35 -44 53 -92 53 -147c0 -129 -100 -235 -246 -235
c-55 0 -105 10 -148 49l-56 -56l-36 36l57 56c-24 33 -51 84 -51 146c0 130 101 237 244 237c62 0 103 -20 146 -50z" />
    <glyph glyph-name="oe" unicode="&#x153;" horiz-adv-x="792" 
d="M397 236l267 68c-20 52 -66 97 -124 97c-98 0 -148 -83 -143 -165zM379 59c-35 54 -52 108 -52 161c0 48 14 96 43 141c-30 24 -68 42 -109 42c-72 0 -155 -56 -155 -169c0 -104 70 -203 174 -203c31 0 67 11 99 28zM717 134l36 -28c-49 -74 -129 -119 -211 -119
c-43 0 -81 10 -127 38c-39 -23 -80 -43 -151 -43c-129 0 -225 106 -225 233s98 236 227 236c59 0 110 -19 149 -45c34 24 81 41 129 41c54 0 105 -20 142 -57c39 -39 40 -76 68 -90l6 -23l-356 -95c1 -61 56 -136 158 -136c59 0 112 27 155 88z" />
    <glyph glyph-name="germandbls" unicode="&#xdf;" horiz-adv-x="531" 
d="M65 64v436c0 91 17 233 195 233c135 0 175 -88 175 -146c0 -64 -40 -129 -119 -161c99 -15 182 -69 182 -202c0 -174 -141 -232 -221 -232c-40 0 -64 5 -89 13l24 92h11c5 -38 17 -55 65 -55c62 0 137 54 137 177c0 61 -18 96 -48 126c-37 38 -96 49 -161 49v46
c64 0 151 44 151 140c0 64 -46 115 -115 115c-28 0 -60 -11 -80 -31c-25 -26 -38 -76 -38 -134v-530h-104v13c20 5 35 31 35 51z" />
    <glyph glyph-name="logicalnot" unicode="&#xac;" horiz-adv-x="667" 
d="M72 353v43h523v-269h-43v226h-480z" />
    <glyph glyph-name="mu" unicode="&#xb5;" 
d="M30 354v15c32 18 65 46 89 78l15 -1v-286c0 -40 10 -68 30 -87c19 -19 51 -30 84 -30c58 0 105 19 161 63v206c0 24 -15 42 -38 44v14c33 17 67 47 92 77l14 -1v-333c0 -20 14 -36 36 -35v-16c-38 -22 -65 -46 -91 -76h-15v68c-42 -34 -101 -68 -179 -68
c-48 0 -95 16 -126 51c-2 -47 -8 -67 10 -139c5 -20 7 -36 7 -49c0 -33 -16 -56 -40 -56c-23 0 -37 22 -37 56c0 13 4 29 7 48l11 61c4 21 8 87 7 183v171c0 23 -14 41 -37 42z" />
    <glyph glyph-name="trademark" unicode="&#x2122;" horiz-adv-x="980" 
d="M16 611l10 98h356l10 -98h-16c-9 52 -32 69 -95 69h-36v-283c0 -54 6 -62 51 -65v-17h-183v17c45 5 49 11 49 64v284h-37c-61 0 -82 -17 -93 -69h-16zM426 709h140l133 -279l129 279h136v-18c-47 -1 -53 -9 -53 -66v-228c0 -56 4 -62 53 -65v-17h-194v17
c50 2 58 11 58 64v240l-149 -321h-16l-151 317v-235c0 -54 8 -65 46 -65h18v-17h-150v17c48 0 55 9 55 64v228c0 60 -6 67 -55 67v18z" />
    <glyph glyph-name="Eth" unicode="&#xd0;" horiz-adv-x="750" 
d="M182 368v-308h107c112 0 193 21 260 87c54 54 77 133 77 212c0 143 -92 288 -284 288h-160v-219h222v-60h-222zM103 368h-117v60h117v218c0 20 -15 43 -36 49v15h274c245 0 366 -165 366 -353c0 -246 -184 -357 -366 -357h-273v15c20 3 35 23 35 44v309z" />
    <glyph glyph-name="onehalf" unicode="&#xbd;" horiz-adv-x="865" 
d="M92 669v10c32 17 51 32 72 50h11v-353c0 -13 11 -24 28 -24v-8h-111v11c26 -2 31 24 31 42v228c0 18 -7 43 -31 44zM586 222l-73 45c23 58 69 93 131 93c64 0 116 -46 116 -93c0 -57 -41 -101 -83 -142l-97 -95h144c15 0 31 7 38 25h12l-21 -80h-257v35
c24 23 110 107 159 166c39 48 46 66 46 85c0 33 -25 56 -63 56c-37 0 -62 -22 -62 -49c0 -12 5 -25 16 -38zM126 -45l436 773h61l-440 -773h-57z" />
    <glyph glyph-name="plusminus" unicode="&#xb1;" horiz-adv-x="667" 
d="M71 394l1 43h241l-1 240h43v-240h240v-43h-240v-240h-43v240h-241zM72 0v43h523v-43h-523z" />
    <glyph glyph-name="Thorn" unicode="&#xde;" horiz-adv-x="604" 
d="M65 695v15h153v-15c-25 -5 -36 -21 -36 -45v-103h146c159 0 244 -77 244 -196c0 -191 -214 -191 -272 -191c-28 0 -56 1 -81 3v51c114 0 271 -1 271 139c0 65 -38 134 -171 134h-137v-421c0 -24 11 -44 35 -51v-15h-149v15c24 8 35 22 35 46v581c0 25 -12 49 -38 53z" />
    <glyph glyph-name="onequarter" unicode="&#xbc;" horiz-adv-x="865" 
d="M639 119v155l-135 -155h135zM460 125l201 237h30v-242c14 0 34 4 45 31h7l-9 -78h-9c-7 6 -19 7 -33 7v-70c-1 -13 9 -25 19 -27v-8h-93v8c13 4 21 17 21 32v64h-179v46zM122 669v10c32 17 51 32 72 50h11v-353c0 -13 11 -24 28 -24v-8h-111v11c26 -2 31 24 31 42v228
c0 18 -7 43 -31 44zM156 -45l436 773h62l-441 -773h-57z" />
    <glyph glyph-name="divide" unicode="&#xf7;" horiz-adv-x="667" 
d="M302 465c1 15 15 27 31 27s30 -13 30 -29c0 -17 -14 -31 -30 -31c-17 0 -31 15 -31 33zM302 61c0 16 14 30 31 30s30 -14 30 -30c0 -17 -13 -30 -30 -30s-31 13 -31 30zM72 240v43h523v-43h-523z" />
    <glyph glyph-name="brokenbar" unicode="&#xa6;" horiz-adv-x="496" 
d="M227 -175v350h43v-350h-43zM227 325v350h43v-350h-43z" />
    <glyph glyph-name="degree" unicode="&#xb0;" horiz-adv-x="400" 
d="M199 698c84 0 151 -67 151 -149c0 -83 -66 -151 -148 -151c-84 0 -152 68 -152 152c0 82 67 148 149 148zM199 657c-60 0 -108 -48 -108 -106c0 -62 50 -112 111 -112c59 0 107 50 107 110s-50 108 -110 108z" />
    <glyph glyph-name="thorn" unicode="&#xfe;" horiz-adv-x="521" 
d="M133 340v-244c32 -31 85 -63 133 -63c84 0 161 61 161 169c0 94 -64 190 -167 190c-51 0 -92 -26 -127 -52zM65 -125v711c0 23 -4 48 -34 57v12c31 19 63 46 88 78h14v-342c35 30 88 58 150 58c117 0 210 -91 210 -221c0 -138 -85 -242 -222 -242c-63 0 -109 23 -138 39
v-165c0 -24 17 -39 34 -43v-14h-139v14c27 4 37 28 37 58z" />
    <glyph glyph-name="threequarters" unicode="&#xbe;" horiz-adv-x="865" 
d="M687 119v155l-135 -155h135zM508 125l201 237h30v-242c14 0 34 4 45 31h7l-9 -78h-9c-7 6 -19 7 -33 7v-70c-1 -13 9 -25 19 -27v-8h-93v8c13 4 21 17 21 32v64h-179v46zM134 625l-42 41c22 39 61 64 110 64c62 0 105 -42 105 -86c0 -34 -19 -62 -57 -80
c59 -24 83 -53 83 -100c0 -69 -60 -127 -143 -127c-47 0 -88 16 -116 39l27 61l9 -2c10 -43 42 -59 77 -59c54 0 86 36 86 82c0 56 -43 81 -115 81v41c49 2 88 16 88 57c0 25 -16 53 -54 53c-29 0 -53 -17 -53 -39c0 -5 1 -11 4 -17zM208 -45l435 773h62l-440 -773h-57z" />
    <glyph glyph-name="registered" unicode="&#xae;" horiz-adv-x="760" 
d="M188 559v17h189c86 0 145 -44 145 -107c0 -57 -34 -92 -109 -111l103 -145c23 -33 35 -42 59 -43v-17h-90l-144 198h-37v-151c0 -21 16 -30 58 -30v-17h-179v17c45 0 51 7 51 67v256c0 59 -5 65 -46 66zM304 547v-175h15c81 0 124 32 124 93c0 49 -43 89 -97 89
c-16 0 -23 -1 -42 -7zM380 709c191 0 346 -155 346 -346s-155 -346 -346 -346s-346 155 -346 346s155 346 346 346zM380 679c-175 0 -316 -141 -316 -316s141 -316 316 -316s316 141 316 316s-141 316 -316 316z" />
    <glyph glyph-name="minus" unicode="&#x2212;" horiz-adv-x="667" 
d="M72 240v43h523v-43h-523z" />
    <glyph glyph-name="eth" unicode="&#xf0;" 
d="M100 238c0 -102 61 -204 178 -204c86 0 166 53 166 177c0 116 -92 188 -186 188c-118 0 -158 -92 -158 -161zM431 684l-101 -69c101 -106 181 -234 181 -398c0 -151 -125 -235 -235 -235c-184 0 -246 144 -246 229c0 125 91 241 246 241c42 0 84 -14 118 -35
c-25 59 -64 114 -112 166l-105 -71l-28 42l98 66c-23 24 -49 48 -76 72l31 39c31 -24 61 -50 91 -80l110 74z" />
    <glyph glyph-name="multiply" unicode="&#xd7;" horiz-adv-x="667" 
d="M303 261l-207 209l29 30l208 -208l208 208l30 -30l-207 -209l205 -205l-30 -31l-206 206l-207 -206l-30 31z" />
    <glyph glyph-name="copyright" unicode="&#xa9;" horiz-adv-x="760" 
d="M532 586h19l10 -137h-19c-23 76 -74 115 -147 115c-100 0 -158 -72 -158 -196c0 -123 61 -195 163 -195c63 0 113 26 151 79l18 -10c-46 -67 -106 -99 -189 -99c-128 0 -224 95 -224 221c0 125 106 222 244 222c31 0 41 -2 90 -18c9 -3 13 -4 18 -4c11 0 17 5 24 22z
M380 709c191 0 346 -155 346 -346s-155 -346 -346 -346s-346 155 -346 346s155 346 346 346zM380 679c-175 0 -316 -141 -316 -316s141 -316 316 -316s316 141 316 316s-141 316 -316 316z" />
    <glyph glyph-name="Aacute" unicode="&#xc1;" horiz-adv-x="781" 
d="M536 293l-148 311l-146 -311h294zM73 77l305 653h34l317 -668c14 -31 27 -43 46 -47v-15h-149v15c16 4 23 12 23 24c0 9 -3 20 -10 34l-76 160h-349l-69 -151c-7 -15 -12 -28 -12 -39c0 -12 6 -21 24 -28v-15h-138v15c32 10 38 28 54 62zM364 807l89 147h115l-154 -147
h-50z" />
    <glyph glyph-name="Acircumflex" unicode="&#xc2;" horiz-adv-x="781" 
d="M536 293l-148 311l-146 -311h294zM73 77l305 653h34l317 -668c14 -31 27 -43 46 -47v-15h-149v15c16 4 23 12 23 24c0 9 -3 20 -10 34l-76 160h-349l-69 -151c-7 -15 -12 -28 -12 -39c0 -12 6 -21 24 -28v-15h-138v15c32 10 38 28 54 62zM234 811l107 138h90l107 -138
h-51l-101 76l-99 -76h-53z" />
    <glyph glyph-name="Adieresis" unicode="&#xc4;" horiz-adv-x="781" 
d="M536 293l-148 311l-146 -311h294zM73 77l305 653h34l317 -668c14 -31 27 -43 46 -47v-15h-149v15c16 4 23 12 23 24c0 9 -3 20 -10 34l-76 160h-349l-69 -151c-7 -15 -12 -28 -12 -39c0 -12 6 -21 24 -28v-15h-138v15c32 10 38 28 54 62zM243 863v16c17 12 33 30 43 43
h20c15 -16 28 -31 43 -43v-17c-12 -9 -32 -29 -41 -42h-21c-11 15 -29 32 -44 43zM433 863v15c17 13 34 31 42 43h23c9 -11 27 -31 41 -41v-21c-12 -9 -32 -27 -44 -41h-18c-17 20 -28 31 -44 45z" />
    <glyph glyph-name="Agrave" unicode="&#xc0;" horiz-adv-x="781" 
d="M536 293l-148 311l-146 -311h294zM73 77l305 653h34l317 -668c14 -31 27 -43 46 -47v-15h-149v15c16 4 23 12 23 24c0 9 -3 20 -10 34l-76 160h-349l-69 -151c-7 -15 -12 -28 -12 -39c0 -12 6 -21 24 -28v-15h-138v15c32 10 38 28 54 62zM363 806l-155 149h116l89 -149
h-50z" />
    <glyph glyph-name="Aring" unicode="&#xc5;" horiz-adv-x="781" 
d="M534 290l-148 313l-145 -313h293zM76 81l276 594c-33 12 -70 49 -70 103s43 111 110 111c59 0 108 -50 108 -109c0 -53 -34 -88 -67 -102l286 -600c15 -31 26 -61 54 -63v-15h-149v15c15 2 23 11 23 24c0 9 -4 20 -10 34l-75 157h-349l-68 -147c-8 -16 -15 -31 -15 -44
c0 -11 6 -21 24 -27v-12h-135v12c32 12 41 35 57 69zM391 828c-27 0 -49 -22 -49 -49c0 -28 22 -50 49 -50s49 22 49 50c0 27 -22 49 -49 49z" />
    <glyph glyph-name="Atilde" unicode="&#xc3;" horiz-adv-x="781" 
d="M536 293l-148 311l-146 -311h294zM73 77l305 653h34l317 -668c14 -31 27 -43 46 -47v-15h-149v15c16 4 23 12 23 24c0 9 -3 20 -10 34l-76 160h-349l-69 -151c-7 -15 -12 -28 -12 -39c0 -12 6 -21 24 -28v-15h-138v15c32 10 38 28 54 62zM275 827h-41c0 56 34 103 87 103
c28 0 50 -10 70 -20s38 -20 57 -20c25 0 37 18 43 42h45c-3 -53 -25 -104 -87 -104c-19 0 -43 10 -65 20c-23 9 -44 19 -61 19c-29 0 -43 -21 -48 -40z" />
    <glyph glyph-name="Ccedilla" unicode="&#xc7;" horiz-adv-x="771" 
d="M337 -61l72 40c-207 5 -354 164 -354 379c0 108 49 203 109 264c54 54 133 105 252 105c91 0 147 -29 181 -47c12 10 23 18 33 29h16l41 -175h-19c-56 91 -153 136 -245 136c-168 0 -284 -141 -284 -308c0 -149 106 -319 296 -319c112 0 197 55 265 170l42 -27
c-39 -68 -122 -192 -299 -206c54 -16 76 -47 76 -81c0 -60 -60 -101 -153 -101c-28 0 -80 8 -114 24l13 36c26 -6 64 -16 97 -16c49 0 78 24 78 51c0 25 -20 41 -59 41c-12 0 -25 -1 -40 -4z" />
    <glyph glyph-name="Eacute" unicode="&#xc9;" horiz-adv-x="656" 
d="M60 695v15h487l42 -106h-17c-19 23 -46 44 -111 44h-285v-224h329c21 0 43 15 46 36h14v-132h-14c-5 21 -21 35 -46 35h-329v-302h295c62 0 84 16 110 46h18l-42 -107h-495v15c21 5 35 23 35 38v591c0 23 -12 43 -37 51zM302 807l89 147h115l-154 -147h-50z" />
    <glyph glyph-name="Ecircumflex" unicode="&#xca;" horiz-adv-x="656" 
d="M60 695v15h487l42 -106h-17c-19 23 -46 44 -111 44h-285v-224h329c21 0 43 15 46 36h14v-132h-14c-5 21 -21 35 -46 35h-329v-302h295c62 0 84 16 110 46h18l-42 -107h-495v15c21 5 35 23 35 38v591c0 23 -12 43 -37 51zM172 811l107 138h90l107 -138h-51l-101 76
l-99 -76h-53z" />
    <glyph glyph-name="Edieresis" unicode="&#xcb;" horiz-adv-x="656" 
d="M60 695v15h487l42 -106h-17c-19 23 -46 44 -111 44h-285v-224h329c21 0 43 15 46 36h14v-132h-14c-5 21 -21 35 -46 35h-329v-302h295c62 0 84 16 110 46h18l-42 -107h-495v15c21 5 35 23 35 38v591c0 23 -12 43 -37 51zM181 863v16c17 12 33 30 43 43h20
c15 -16 28 -31 43 -43v-17c-12 -9 -32 -29 -41 -42h-21c-11 15 -29 32 -44 43zM371 863v15c17 13 34 31 42 43h23c9 -11 27 -31 41 -41v-21c-12 -9 -32 -27 -44 -41h-18c-17 20 -28 31 -44 45z" />
    <glyph glyph-name="Egrave" unicode="&#xc8;" horiz-adv-x="656" 
d="M60 695v15h487l42 -106h-17c-19 23 -46 44 -111 44h-285v-224h329c21 0 43 15 46 36h14v-132h-14c-5 21 -21 35 -46 35h-329v-302h295c62 0 84 16 110 46h18l-42 -107h-495v15c21 5 35 23 35 38v591c0 23 -12 43 -37 51zM301 806l-155 149h116l89 -149h-50z" />
    <glyph glyph-name="Iacute" unicode="&#xcd;" horiz-adv-x="292" 
d="M70 695v15h152v-15c-25 -5 -36 -21 -36 -45v-587c0 -26 14 -43 36 -48v-15h-151v15c22 7 36 22 36 45v584c0 24 -10 44 -37 51zM120 807l89 147h115l-154 -147h-50z" />
    <glyph glyph-name="Icircumflex" unicode="&#xce;" horiz-adv-x="292" 
d="M70 695v15h152v-15c-25 -5 -36 -21 -36 -45v-587c0 -26 14 -43 36 -48v-15h-151v15c22 7 36 22 36 45v584c0 24 -10 44 -37 51zM-10 811l107 138h90l107 -138h-51l-101 76l-99 -76h-53z" />
    <glyph glyph-name="Idieresis" unicode="&#xcf;" horiz-adv-x="292" 
d="M70 695v15h152v-15c-25 -5 -36 -21 -36 -45v-587c0 -26 14 -43 36 -48v-15h-151v15c22 7 36 22 36 45v584c0 24 -10 44 -37 51zM-1 863v16c17 12 33 30 43 43h20c15 -16 28 -31 43 -43v-17c-12 -9 -32 -29 -41 -42h-21c-11 15 -29 32 -44 43zM189 863v15
c17 13 34 31 42 43h23c9 -11 27 -31 41 -41v-21c-12 -9 -32 -27 -44 -41h-18c-17 20 -28 31 -44 45z" />
    <glyph glyph-name="Igrave" unicode="&#xcc;" horiz-adv-x="292" 
d="M70 695v15h152v-15c-25 -5 -36 -21 -36 -45v-587c0 -26 14 -43 36 -48v-15h-151v15c22 7 36 22 36 45v584c0 24 -10 44 -37 51zM119 806l-155 149h116l89 -149h-50z" />
    <glyph glyph-name="Ntilde" unicode="&#xd1;" horiz-adv-x="844" 
d="M63 695v15h123l494 -553v494c0 27 -16 37 -41 44v15h142v-15c-29 -6 -40 -22 -40 -49v-646h-26l-549 615v-537c0 -39 13 -60 43 -63v-15h-143v15c20 4 38 17 38 43v584c0 23 -6 45 -41 53zM307 827h-41c0 56 34 103 87 103c28 0 50 -10 70 -20s38 -20 57 -20
c25 0 37 18 43 42h45c-3 -53 -25 -104 -87 -104c-19 0 -43 10 -65 20c-23 9 -44 19 -61 19c-29 0 -43 -21 -48 -40z" />
    <glyph glyph-name="Oacute" unicode="&#xd3;" horiz-adv-x="865" 
d="M430 -24c-258 0 -383 209 -383 372c0 211 169 386 392 386c238 0 380 -190 380 -377c0 -205 -160 -381 -389 -381zM445 34c83 0 163 40 212 89c55 55 83 122 83 220c0 141 -120 332 -317 332c-135 0 -298 -109 -298 -300c0 -92 39 -183 108 -252c58 -59 124 -89 212 -89z
M406 807l89 147h115l-154 -147h-50z" />
    <glyph glyph-name="Ocircumflex" unicode="&#xd4;" horiz-adv-x="865" 
d="M430 -24c-258 0 -383 209 -383 372c0 211 169 386 392 386c238 0 380 -190 380 -377c0 -205 -160 -381 -389 -381zM445 34c83 0 163 40 212 89c55 55 83 122 83 220c0 141 -120 332 -317 332c-135 0 -298 -109 -298 -300c0 -92 39 -183 108 -252c58 -59 124 -89 212 -89z
M276 811l107 138h90l107 -138h-51l-101 76l-99 -76h-53z" />
    <glyph glyph-name="Odieresis" unicode="&#xd6;" horiz-adv-x="865" 
d="M430 -24c-258 0 -383 209 -383 372c0 211 169 386 392 386c238 0 380 -190 380 -377c0 -205 -160 -381 -389 -381zM445 34c83 0 163 40 212 89c55 55 83 122 83 220c0 141 -120 332 -317 332c-135 0 -298 -109 -298 -300c0 -92 39 -183 108 -252c58 -59 124 -89 212 -89z
M285 863v16c17 12 33 30 43 43h20c15 -16 28 -31 43 -43v-17c-12 -9 -32 -29 -41 -42h-21c-11 15 -29 32 -44 43zM475 863v15c17 13 34 31 42 43h23c9 -11 27 -31 41 -41v-21c-12 -9 -32 -27 -44 -41h-18c-17 20 -28 31 -44 45z" />
    <glyph glyph-name="Ograve" unicode="&#xd2;" horiz-adv-x="865" 
d="M430 -24c-258 0 -383 209 -383 372c0 211 169 386 392 386c238 0 380 -190 380 -377c0 -205 -160 -381 -389 -381zM445 34c83 0 163 40 212 89c55 55 83 122 83 220c0 141 -120 332 -317 332c-135 0 -298 -109 -298 -300c0 -92 39 -183 108 -252c58 -59 124 -89 212 -89z
M405 806l-155 149h116l89 -149h-50z" />
    <glyph glyph-name="Otilde" unicode="&#xd5;" horiz-adv-x="865" 
d="M430 -24c-258 0 -383 209 -383 372c0 211 169 386 392 386c238 0 380 -190 380 -377c0 -205 -160 -381 -389 -381zM445 34c83 0 163 40 212 89c55 55 83 122 83 220c0 141 -120 332 -317 332c-135 0 -298 -109 -298 -300c0 -92 39 -183 108 -252c58 -59 124 -89 212 -89z
M317 827h-41c0 56 34 103 87 103c28 0 50 -10 70 -20s38 -20 57 -20c25 0 37 18 43 42h45c-3 -53 -25 -104 -87 -104c-19 0 -43 10 -65 20c-23 9 -44 19 -61 19c-29 0 -43 -21 -48 -40z" />
    <glyph glyph-name="Scaron" unicode="&#x160;" horiz-adv-x="583" 
d="M55 159l19 1c48 -75 137 -120 218 -120c97 0 163 56 163 134c0 181 -378 165 -378 385c0 91 70 168 200 168c87 0 132 -23 159 -39l24 30h15l29 -152h-19c-51 69 -123 103 -199 103c-90 0 -139 -44 -139 -102c0 -159 379 -143 379 -388c0 -55 -34 -197 -223 -197
c-64 0 -110 14 -156 40l-22 -32h-16zM248 811l-111 138h50l104 -76l101 75h54l-111 -137h-87z" />
    <glyph glyph-name="Uacute" unicode="&#xda;" horiz-adv-x="760" 
d="M571 695v15h143v-15c-25 -6 -40 -21 -40 -48v-382c0 -174 -113 -285 -289 -285c-139 0 -301 66 -301 305v360c0 23 -14 42 -37 50v15h155v-15c-31 -7 -39 -32 -39 -55v-343c0 -84 18 -148 61 -190c40 -41 102 -66 174 -66c63 0 120 24 154 58c45 45 61 95 61 175v373
c0 27 -15 43 -42 48zM354 807l89 147h115l-154 -147h-50z" />
    <glyph glyph-name="Ucircumflex" unicode="&#xdb;" horiz-adv-x="760" 
d="M571 695v15h143v-15c-25 -6 -40 -21 -40 -48v-382c0 -174 -113 -285 -289 -285c-139 0 -301 66 -301 305v360c0 23 -14 42 -37 50v15h155v-15c-31 -7 -39 -32 -39 -55v-343c0 -84 18 -148 61 -190c40 -41 102 -66 174 -66c63 0 120 24 154 58c45 45 61 95 61 175v373
c0 27 -15 43 -42 48zM224 811l107 138h90l107 -138h-51l-101 76l-99 -76h-53z" />
    <glyph glyph-name="Udieresis" unicode="&#xdc;" horiz-adv-x="760" 
d="M571 695v15h143v-15c-25 -6 -40 -21 -40 -48v-382c0 -174 -113 -285 -289 -285c-139 0 -301 66 -301 305v360c0 23 -14 42 -37 50v15h155v-15c-31 -7 -39 -32 -39 -55v-343c0 -84 18 -148 61 -190c40 -41 102 -66 174 -66c63 0 120 24 154 58c45 45 61 95 61 175v373
c0 27 -15 43 -42 48zM233 863v16c17 12 33 30 43 43h20c15 -16 28 -31 43 -43v-17c-12 -9 -32 -29 -41 -42h-21c-11 15 -29 32 -44 43zM423 863v15c17 13 34 31 42 43h23c9 -11 27 -31 41 -41v-21c-12 -9 -32 -27 -44 -41h-18c-17 20 -28 31 -44 45z" />
    <glyph glyph-name="Ugrave" unicode="&#xd9;" horiz-adv-x="760" 
d="M571 695v15h143v-15c-25 -6 -40 -21 -40 -48v-382c0 -174 -113 -285 -289 -285c-139 0 -301 66 -301 305v360c0 23 -14 42 -37 50v15h155v-15c-31 -7 -39 -32 -39 -55v-343c0 -84 18 -148 61 -190c40 -41 102 -66 174 -66c63 0 120 24 154 58c45 45 61 95 61 175v373
c0 27 -15 43 -42 48zM353 806l-155 149h116l89 -149h-50z" />
    <glyph glyph-name="Yacute" unicode="&#xdd;" horiz-adv-x="688" 
d="M4 695v15h166v-15c-16 -3 -25 -11 -25 -21c0 -6 3 -13 8 -19l207 -282l187 268c7 10 13 23 13 34s-6 20 -26 20v15h150v-15c-29 -6 -56 -40 -70 -60l-226 -329v-244c0 -26 16 -43 37 -47v-15h-151v15c23 7 35 27 35 44v255l-243 331c-18 24 -39 53 -62 50zM318 807
l89 147h115l-154 -147h-50z" />
    <glyph glyph-name="Ydieresis" unicode="&#x178;" horiz-adv-x="688" 
d="M4 695v15h166v-15c-16 -3 -25 -11 -25 -21c0 -6 3 -13 8 -19l207 -282l187 268c7 10 13 23 13 34s-6 20 -26 20v15h150v-15c-29 -6 -56 -40 -70 -60l-226 -329v-244c0 -26 16 -43 37 -47v-15h-151v15c23 7 35 27 35 44v255l-243 331c-18 24 -39 53 -62 50zM197 863v16
c17 12 33 30 43 43h20c15 -16 28 -31 43 -43v-17c-12 -9 -32 -29 -41 -42h-21c-11 15 -29 32 -44 43zM387 863v15c17 13 34 31 42 43h23c9 -11 27 -31 41 -41v-21c-12 -9 -32 -27 -44 -41h-18c-17 20 -28 31 -44 45z" />
    <glyph glyph-name="Zcaron" unicode="&#x17d;" horiz-adv-x="625" 
d="M37 605l28 105h524v-18l-448 -632h356c37 0 82 18 97 52h19l-29 -112h-567v22l448 627h-338c-30 0 -55 -18 -72 -45zM269 811l-111 138h50l104 -76l101 75h54l-111 -137h-87z" />
    <glyph glyph-name="aacute" unicode="&#xe1;" horiz-adv-x="490" 
d="M341 86l-11 156c-96 -9 -177 -24 -209 -56c-21 -21 -27 -43 -27 -63c0 -53 39 -89 99 -89c49 0 109 28 148 52zM85 332l-22 74c24 14 86 40 153 40c115 0 167 -55 178 -169l19 -179c2 -27 8 -56 41 -56c7 0 15 1 24 4l7 -36c-15 -9 -45 -18 -61 -18c-41 0 -58 20 -71 47
c-41 -22 -92 -53 -184 -53c-106 0 -142 66 -142 133c0 41 14 72 41 98c53 53 170 64 254 74c-6 74 -50 104 -108 104c-68 0 -105 -28 -116 -62zM219 531l89 147h115l-154 -147h-50z" />
    <glyph glyph-name="acircumflex" unicode="&#xe2;" horiz-adv-x="490" 
d="M341 86l-11 156c-96 -9 -177 -24 -209 -56c-21 -21 -27 -43 -27 -63c0 -53 39 -89 99 -89c49 0 109 28 148 52zM85 332l-22 74c24 14 86 40 153 40c115 0 167 -55 178 -169l19 -179c2 -27 8 -56 41 -56c7 0 15 1 24 4l7 -36c-15 -9 -45 -18 -61 -18c-41 0 -58 20 -71 47
c-41 -22 -92 -53 -184 -53c-106 0 -142 66 -142 133c0 41 14 72 41 98c53 53 170 64 254 74c-6 74 -50 104 -108 104c-68 0 -105 -28 -116 -62zM89 535l107 138h90l107 -138h-51l-101 76l-99 -76h-53z" />
    <glyph glyph-name="adieresis" unicode="&#xe4;" horiz-adv-x="490" 
d="M341 86l-11 156c-96 -9 -177 -24 -209 -56c-21 -21 -27 -43 -27 -63c0 -53 39 -89 99 -89c49 0 109 28 148 52zM85 332l-22 74c24 14 86 40 153 40c115 0 167 -55 178 -169l19 -179c2 -27 8 -56 41 -56c7 0 15 1 24 4l7 -36c-15 -9 -45 -18 -61 -18c-41 0 -58 20 -71 47
c-41 -22 -92 -53 -184 -53c-106 0 -142 66 -142 133c0 41 14 72 41 98c53 53 170 64 254 74c-6 74 -50 104 -108 104c-68 0 -105 -28 -116 -62zM78 587v16c17 12 33 30 43 43h20c15 -16 28 -31 43 -43v-17c-12 -9 -32 -29 -41 -42h-21c-11 15 -29 32 -44 43zM268 587v15
c17 13 34 31 42 43h23c9 -11 27 -31 41 -41v-21c-12 -9 -32 -27 -44 -41h-18c-17 20 -28 31 -44 45z" />
    <glyph glyph-name="agrave" unicode="&#xe0;" horiz-adv-x="490" 
d="M341 86l-11 156c-96 -9 -177 -24 -209 -56c-21 -21 -27 -43 -27 -63c0 -53 39 -89 99 -89c49 0 109 28 148 52zM85 332l-22 74c24 14 86 40 153 40c115 0 167 -55 178 -169l19 -179c2 -27 8 -56 41 -56c7 0 15 1 24 4l7 -36c-15 -9 -45 -18 -61 -18c-41 0 -58 20 -71 47
c-41 -22 -92 -53 -184 -53c-106 0 -142 66 -142 133c0 41 14 72 41 98c53 53 170 64 254 74c-6 74 -50 104 -108 104c-68 0 -105 -28 -116 -62zM218 530l-155 149h116l89 -149h-50z" />
    <glyph glyph-name="aring" unicode="&#xe5;" horiz-adv-x="490" 
d="M341 86l-11 156c-96 -9 -177 -24 -209 -56c-21 -21 -27 -43 -27 -63c0 -53 39 -89 99 -89c49 0 109 28 148 52zM85 332l-22 74c24 14 86 40 153 40c115 0 167 -55 178 -169l19 -179c2 -27 8 -56 41 -56c7 0 15 1 24 4l7 -36c-15 -9 -45 -18 -61 -18c-41 0 -58 20 -71 47
c-41 -22 -92 -53 -184 -53c-106 0 -142 66 -142 133c0 41 14 72 41 98c53 53 170 64 254 74c-6 74 -50 104 -108 104c-68 0 -105 -28 -116 -62zM221 700c56 0 100 -44 100 -99c0 -56 -44 -100 -100 -100s-100 44 -100 100c0 55 44 99 100 99zM221 651c-28 0 -51 -23 -51 -50
c0 -28 23 -51 51 -51s51 23 51 51c0 27 -23 50 -51 50z" />
    <glyph glyph-name="atilde" unicode="&#xe3;" horiz-adv-x="490" 
d="M341 86l-11 156c-96 -9 -177 -24 -209 -56c-21 -21 -27 -43 -27 -63c0 -53 39 -89 99 -89c49 0 109 28 148 52zM85 332l-22 74c24 14 86 40 153 40c115 0 167 -55 178 -169l19 -179c2 -27 8 -56 41 -56c7 0 15 1 24 4l7 -36c-15 -9 -45 -18 -61 -18c-41 0 -58 20 -71 47
c-41 -22 -92 -53 -184 -53c-106 0 -142 66 -142 133c0 41 14 72 41 98c53 53 170 64 254 74c-6 74 -50 104 -108 104c-68 0 -105 -28 -116 -62zM105 551h-41c0 56 34 103 87 103c28 0 50 -10 70 -20s38 -20 57 -20c25 0 37 18 43 42h45c-3 -53 -25 -104 -87 -104
c-19 0 -43 10 -65 20c-23 9 -44 19 -61 19c-29 0 -43 -21 -48 -40z" />
    <glyph glyph-name="ccedilla" unicode="&#xe7;" horiz-adv-x="479" 
d="M179 -45l56 28c-128 12 -197 117 -197 227c0 141 101 233 225 233c73 0 124 -27 175 -71l-33 -88l-18 2c-16 62 -56 105 -132 105c-71 0 -147 -57 -147 -169c0 -106 71 -181 160 -181c48 0 97 23 154 80l36 -36c-43 -52 -85 -85 -163 -102c45 -12 67 -47 67 -79
c0 -47 -42 -88 -121 -88c-54 0 -87 10 -121 17l14 42c23 -6 52 -13 85 -13c49 0 76 20 76 45c0 24 -18 46 -61 46c-14 0 -30 -2 -50 -8z" />
    <glyph glyph-name="eacute" unicode="&#xe9;" horiz-adv-x="500" 
d="M106 234l266 69c-21 51 -60 95 -125 95c-91 0 -146 -75 -141 -164zM426 133l35 -29c-59 -81 -126 -118 -209 -118c-133 0 -217 98 -217 234c0 144 103 226 217 226c59 0 104 -17 138 -52c48 -47 45 -82 72 -94l6 -25l-356 -92c11 -88 80 -138 151 -138
c64 0 116 31 163 88zM224 531l89 147h115l-154 -147h-50z" />
    <glyph glyph-name="ecircumflex" unicode="&#xea;" horiz-adv-x="500" 
d="M106 234l266 69c-21 51 -60 95 -125 95c-91 0 -146 -75 -141 -164zM426 133l35 -29c-59 -81 -126 -118 -209 -118c-133 0 -217 98 -217 234c0 144 103 226 217 226c59 0 104 -17 138 -52c48 -47 45 -82 72 -94l6 -25l-356 -92c11 -88 80 -138 151 -138
c64 0 116 31 163 88zM94 535l107 138h90l107 -138h-51l-101 76l-99 -76h-53z" />
    <glyph glyph-name="edieresis" unicode="&#xeb;" horiz-adv-x="500" 
d="M106 234l266 69c-21 51 -60 95 -125 95c-91 0 -146 -75 -141 -164zM426 133l35 -29c-59 -81 -126 -118 -209 -118c-133 0 -217 98 -217 234c0 144 103 226 217 226c59 0 104 -17 138 -52c48 -47 45 -82 72 -94l6 -25l-356 -92c11 -88 80 -138 151 -138
c64 0 116 31 163 88zM103 587v16c17 12 33 30 43 43h20c15 -16 28 -31 43 -43v-17c-12 -9 -32 -29 -41 -42h-21c-11 15 -29 32 -44 43zM293 587v15c17 13 34 31 42 43h23c9 -11 27 -31 41 -41v-21c-12 -9 -32 -27 -44 -41h-18c-17 20 -28 31 -44 45z" />
    <glyph glyph-name="egrave" unicode="&#xe8;" horiz-adv-x="500" 
d="M106 234l266 69c-21 51 -60 95 -125 95c-91 0 -146 -75 -141 -164zM426 133l35 -29c-59 -81 -126 -118 -209 -118c-133 0 -217 98 -217 234c0 144 103 226 217 226c59 0 104 -17 138 -52c48 -47 45 -82 72 -94l6 -25l-356 -92c11 -88 80 -138 151 -138
c64 0 116 31 163 88zM223 530l-155 149h116l89 -149h-50z" />
    <glyph glyph-name="iacute" unicode="&#xed;" horiz-adv-x="219" 
d="M42 356v12c32 20 66 46 90 78h11v-373c0 -29 13 -53 34 -58v-15h-133v15c20 5 32 26 32 49v233c0 28 -7 47 -34 59zM83 531l89 147h115l-154 -147h-50z" />
    <glyph glyph-name="icircumflex" unicode="&#xee;" horiz-adv-x="219" 
d="M42 356v12c32 20 66 46 90 78h11v-373c0 -29 13 -53 34 -58v-15h-133v15c20 5 32 26 32 49v233c0 28 -7 47 -34 59zM-47 535l107 138h90l107 -138h-51l-101 76l-99 -76h-53z" />
    <glyph glyph-name="idieresis" unicode="&#xef;" horiz-adv-x="219" 
d="M42 356v12c32 20 66 46 90 78h11v-373c0 -29 13 -53 34 -58v-15h-133v15c20 5 32 26 32 49v233c0 28 -7 47 -34 59zM-38 587v16c17 12 33 30 43 43h20c15 -16 28 -31 43 -43v-17c-12 -9 -32 -29 -41 -42h-21c-11 15 -29 32 -44 43zM152 587v15c17 13 34 31 42 43h23
c9 -11 27 -31 41 -41v-21c-12 -9 -32 -27 -44 -41h-18c-17 20 -28 31 -44 45z" />
    <glyph glyph-name="igrave" unicode="&#xec;" horiz-adv-x="219" 
d="M42 356v12c32 20 66 46 90 78h11v-373c0 -29 13 -53 34 -58v-15h-133v15c20 5 32 26 32 49v233c0 28 -7 47 -34 59zM82 530l-155 149h116l89 -149h-50z" />
    <glyph glyph-name="ntilde" unicode="&#xf1;" 
d="M136 449v-68c39 32 104 69 174 69c51 0 102 -19 130 -47c26 -27 37 -64 37 -109v-226c0 -26 9 -46 36 -53v-15h-142v15c27 5 38 25 38 56v196c0 44 -8 125 -122 125c-47 0 -107 -23 -152 -61v-265c0 -25 10 -46 36 -51v-15h-141v15c21 0 37 23 37 46v251
c0 22 -14 42 -37 45v14c30 15 68 47 91 78h15zM156 551h-41c0 56 34 103 87 103c28 0 50 -10 70 -20s38 -20 57 -20c25 0 37 18 43 42h45c-3 -53 -25 -104 -87 -104c-19 0 -43 10 -65 20c-23 9 -44 19 -61 19c-29 0 -43 -21 -48 -40z" />
    <glyph glyph-name="oacute" unicode="&#xf3;" 
d="M276 452c128 0 235 -107 235 -235c0 -151 -125 -235 -235 -235c-184 0 -246 144 -246 229c0 125 91 241 246 241zM263 401c-118 0 -163 -94 -163 -163c0 -86 63 -204 178 -204c86 0 162 57 162 161c0 89 -69 206 -177 206zM245 531l89 147h115l-154 -147h-50z" />
    <glyph glyph-name="ocircumflex" unicode="&#xf4;" 
d="M276 452c128 0 235 -107 235 -235c0 -151 -125 -235 -235 -235c-184 0 -246 144 -246 229c0 125 91 241 246 241zM263 401c-118 0 -163 -94 -163 -163c0 -86 63 -204 178 -204c86 0 162 57 162 161c0 89 -69 206 -177 206zM115 535l107 138h90l107 -138h-51l-101 76
l-99 -76h-53z" />
    <glyph glyph-name="odieresis" unicode="&#xf6;" 
d="M276 452c128 0 235 -107 235 -235c0 -151 -125 -235 -235 -235c-184 0 -246 144 -246 229c0 125 91 241 246 241zM263 401c-118 0 -163 -94 -163 -163c0 -86 63 -204 178 -204c86 0 162 57 162 161c0 89 -69 206 -177 206zM124 587v16c17 12 33 30 43 43h20
c15 -16 28 -31 43 -43v-17c-12 -9 -32 -29 -41 -42h-21c-11 15 -29 32 -44 43zM314 587v15c17 13 34 31 42 43h23c9 -11 27 -31 41 -41v-21c-12 -9 -32 -27 -44 -41h-18c-17 20 -28 31 -44 45z" />
    <glyph glyph-name="ograve" unicode="&#xf2;" 
d="M276 452c128 0 235 -107 235 -235c0 -151 -125 -235 -235 -235c-184 0 -246 144 -246 229c0 125 91 241 246 241zM263 401c-118 0 -163 -94 -163 -163c0 -86 63 -204 178 -204c86 0 162 57 162 161c0 89 -69 206 -177 206zM244 530l-155 149h116l89 -149h-50z" />
    <glyph glyph-name="otilde" unicode="&#xf5;" 
d="M276 452c128 0 235 -107 235 -235c0 -151 -125 -235 -235 -235c-184 0 -246 144 -246 229c0 125 91 241 246 241zM263 401c-118 0 -163 -94 -163 -163c0 -86 63 -204 178 -204c86 0 162 57 162 161c0 89 -69 206 -177 206zM156 551h-41c0 56 34 103 87 103
c28 0 50 -10 70 -20s38 -20 57 -20c25 0 37 18 43 42h45c-3 -53 -25 -104 -87 -104c-19 0 -43 10 -65 20c-23 9 -44 19 -61 19c-29 0 -43 -21 -48 -40z" />
    <glyph glyph-name="scaron" unicode="&#x161;" horiz-adv-x="406" 
d="M50 122h16c32 -51 83 -85 143 -85c54 0 88 25 88 66c0 19 -7 33 -18 44c-33 33 -137 58 -182 103c-27 28 -35 50 -35 80c0 70 58 116 147 116c48 0 88 -12 130 -31l9 -92h-18c-26 48 -63 78 -122 78c-55 0 -83 -28 -83 -65c0 -71 146 -83 209 -145c22 -23 33 -53 33 -82
c0 -67 -56 -123 -153 -123c-67 0 -116 23 -152 40zM175 535l-111 138h50l104 -76l101 75h54l-111 -137h-87z" />
    <glyph glyph-name="uacute" unicode="&#xfa;" 
d="M30 354v15c32 18 65 46 89 78l15 -1v-286c0 -73 39 -117 114 -117c58 0 105 19 161 63v206c0 24 -15 42 -38 44v14c33 17 67 47 92 77l14 -1v-333c0 -20 14 -36 36 -35v-16c-38 -22 -65 -46 -91 -76h-15v68c-42 -34 -101 -68 -179 -68c-81 0 -161 45 -161 155v171
c0 23 -14 41 -37 42zM245 531l89 147h115l-154 -147h-50z" />
    <glyph glyph-name="ucircumflex" unicode="&#xfb;" 
d="M30 354v15c32 18 65 46 89 78l15 -1v-286c0 -73 39 -117 114 -117c58 0 105 19 161 63v206c0 24 -15 42 -38 44v14c33 17 67 47 92 77l14 -1v-333c0 -20 14 -36 36 -35v-16c-38 -22 -65 -46 -91 -76h-15v68c-42 -34 -101 -68 -179 -68c-81 0 -161 45 -161 155v171
c0 23 -14 41 -37 42zM115 535l107 138h90l107 -138h-51l-101 76l-99 -76h-53z" />
    <glyph glyph-name="udieresis" unicode="&#xfc;" 
d="M30 354v15c32 18 65 46 89 78l15 -1v-286c0 -73 39 -117 114 -117c58 0 105 19 161 63v206c0 24 -15 42 -38 44v14c33 17 67 47 92 77l14 -1v-333c0 -20 14 -36 36 -35v-16c-38 -22 -65 -46 -91 -76h-15v68c-42 -34 -101 -68 -179 -68c-81 0 -161 45 -161 155v171
c0 23 -14 41 -37 42zM124 587v16c17 12 33 30 43 43h20c15 -16 28 -31 43 -43v-17c-12 -9 -32 -29 -41 -42h-21c-11 15 -29 32 -44 43zM314 587v15c17 13 34 31 42 43h23c9 -11 27 -31 41 -41v-21c-12 -9 -32 -27 -44 -41h-18c-17 20 -28 31 -44 45z" />
    <glyph glyph-name="ugrave" unicode="&#xf9;" 
d="M30 354v15c32 18 65 46 89 78l15 -1v-286c0 -73 39 -117 114 -117c58 0 105 19 161 63v206c0 24 -15 42 -38 44v14c33 17 67 47 92 77l14 -1v-333c0 -20 14 -36 36 -35v-16c-38 -22 -65 -46 -91 -76h-15v68c-42 -34 -101 -68 -179 -68c-81 0 -161 45 -161 155v171
c0 23 -14 41 -37 42zM244 530l-155 149h116l89 -149h-50z" />
    <glyph glyph-name="yacute" unicode="&#xfd;" horiz-adv-x="521" 
d="M12 419v14h137v-14c-19 -7 -26 -19 -26 -33c0 -9 3 -20 9 -30l154 -279l120 249c10 21 16 39 16 54c0 19 -9 32 -29 39v14h120v-14c-14 -5 -28 -32 -36 -48l-204 -432c-15 -31 -50 -103 -82 -135h-103v24c56 17 91 33 130 105l33 67l-193 360c-10 19 -24 49 -46 59z
M234 531l89 147h115l-154 -147h-50z" />
    <glyph glyph-name="ydieresis" unicode="&#xff;" horiz-adv-x="521" 
d="M12 419v14h137v-14c-19 -7 -26 -19 -26 -33c0 -9 3 -20 9 -30l154 -279l120 249c10 21 16 39 16 54c0 19 -9 32 -29 39v14h120v-14c-14 -5 -28 -32 -36 -48l-204 -432c-15 -31 -50 -103 -82 -135h-103v24c56 17 91 33 130 105l33 67l-193 360c-10 19 -24 49 -46 59z
M113 587v16c17 12 33 30 43 43h20c15 -16 28 -31 43 -43v-17c-12 -9 -32 -29 -41 -42h-21c-11 15 -29 32 -44 43zM303 587v15c17 13 34 31 42 43h23c9 -11 27 -31 41 -41v-21c-12 -9 -32 -27 -44 -41h-18c-17 20 -28 31 -44 45z" />
    <glyph glyph-name="zcaron" unicode="&#x17e;" horiz-adv-x="500" 
d="M58 333l33 100h361v-15l-313 -371h80c129 0 175 0 231 52h20l-47 -99h-392v17l309 368h-155c-38 0 -85 -16 -107 -52h-20zM207 535l-111 138h50l104 -76l101 75h54l-111 -137h-87z" />
    <glyph glyph-name="one.superior" horiz-adv-x="365" 
d="M129 669v11c32 16 50 29 72 50h11v-354c0 -12 11 -24 28 -23v-8h-111v10c27 2 31 25 31 42v229c0 18 -3 40 -31 43z" />
    <glyph glyph-name="two.superior" horiz-adv-x="365" 
d="M140 592l-73 45c23 57 70 93 131 93c64 0 116 -46 116 -93c0 -57 -41 -102 -83 -143l-97 -94h144c15 0 31 7 38 25h12l-21 -80h-257v35c24 23 110 107 159 166c39 47 46 66 46 85c0 33 -25 56 -62 56c-38 0 -62 -21 -62 -49c0 -12 4 -25 15 -38z" />
    <glyph glyph-name="three.superior" horiz-adv-x="365" 
d="M113 625l-42 41c22 39 61 64 110 64c62 0 105 -42 105 -86c0 -36 -18 -61 -57 -80c59 -24 83 -53 83 -100c0 -69 -59 -127 -143 -127c-47 0 -88 16 -116 39l27 61l9 -2c10 -43 42 -59 77 -59c54 0 86 36 86 81c0 56 -43 82 -115 82v41c49 2 88 16 88 57
c0 25 -16 53 -54 53c-29 0 -53 -17 -53 -39c0 -6 1 -11 4 -17z" />
    <glyph glyph-name="a.superior" horiz-adv-x="323" 
d="M227 305l-9 103c-21 0 -112 -10 -136 -35c-14 -13 -20 -27 -20 -43c0 -36 27 -59 67 -59c33 0 72 20 98 34zM56 468l-14 50c23 12 60 26 99 26c101 0 116 -65 121 -114l11 -111c3 -27 8 -42 26 -42c5 0 10 1 17 3l5 -25c-18 -7 -32 -11 -44 -11c-20 0 -32 11 -43 31
c-41 -23 -71 -36 -120 -36c-62 0 -96 34 -96 86c0 91 84 102 196 116c-4 46 -29 70 -73 70c-41 0 -66 -16 -77 -41z" />
    <glyph glyph-name="Omega" unicode="&#x2126;" horiz-adv-x="704" 
d="M199 54v3c-72 68 -135 182 -135 328c0 208 127 345 291 345c172 0 284 -156 284 -341c0 -152 -69 -271 -137 -332v-3h150v-54h-230v40c78 55 152 175 152 337c0 136 -74 298 -220 298c-138 0 -226 -133 -226 -299c0 -153 76 -283 152 -336v-40h-230v54h149z" />
    <glyph glyph-name="uni03BC" unicode="&#x3bc;" 
d="M30 354v15c32 18 65 46 89 78l15 -1v-286c0 -40 10 -68 30 -87c19 -19 51 -30 84 -30c58 0 105 19 161 63v206c0 24 -15 42 -38 44v14c33 17 67 47 92 77l14 -1v-333c0 -20 14 -36 36 -35v-16c-38 -22 -65 -46 -91 -76h-15v68c-42 -34 -101 -68 -179 -68
c-48 0 -95 16 -126 51c-2 -47 -8 -67 10 -139c5 -20 7 -36 7 -49c0 -33 -16 -56 -40 -56c-23 0 -37 22 -37 56c0 13 4 29 7 48l11 61c4 21 8 87 7 183v171c0 23 -14 41 -37 42z" />
    <glyph glyph-name="pi" unicode="&#x3c0;" horiz-adv-x="553" 
d="M525 478h-80v-329c0 -86 7 -123 15 -149h-63c-8 16 -16 57 -16 143v335h-185c-5 -139 -36 -381 -73 -478h-63c38 110 68 334 73 478c-64 0 -91 -6 -111 -13l-11 43c24 15 63 26 137 26h384z" />
    <glyph glyph-name="Euro" unicode="&#x20ac;" horiz-adv-x="606" 
d="M2 385l13 47h66c22 184 127 296 258 296c88 0 147 -32 197 -88l-64 -84l-12 7v7c0 63 -49 100 -126 100c-112 0 -168 -95 -182 -238h348l-13 -47h-338v-15c0 -13 3 -27 4 -40h321l-12 -47h-305c21 -136 72 -242 176 -242c87 0 151 64 190 142l45 -19
c-44 -111 -130 -183 -233 -183c-168 0 -239 151 -253 302h-85l14 47h67c0 9 -1 19 -1 28v27h-75z" />
    <glyph glyph-name="afii61289" unicode="&#x2113;" horiz-adv-x="471" 
d="M415 136l32 -27c-41 -80 -101 -123 -178 -123c-113 0 -157 91 -160 197v14c-18 -15 -38 -33 -57 -49l-22 39c28 24 55 46 78 71v286c0 187 77 242 147 242c79 0 118 -71 118 -162c0 -131 -82 -256 -204 -380v-34c1 -125 53 -172 112 -172c63 0 110 52 134 98zM169 549
v-238c89 100 158 204 158 311c0 69 -20 114 -73 114c-39 0 -85 -48 -85 -187z" />
    <glyph glyph-name="estimated" unicode="&#x212e;" horiz-adv-x="899" 
d="M864 344h-671c-4 0 -6 -2 -6 -5v-203c0 -9 3 -16 9 -23c65 -67 154 -110 254 -110c107 0 202 48 267 123h59c-74 -87 -194 -144 -327 -144c-229 0 -414 166 -414 372s185 373 414 373s415 -167 415 -373v-10zM711 370v204c0 9 -3 18 -10 24c-65 64 -153 106 -251 106
s-188 -43 -253 -109c-7 -6 -10 -15 -10 -25v-200c0 -2 2 -7 6 -7h514c3 0 4 5 4 7z" />
    <glyph glyph-name="partialdiff" unicode="&#x2202;" horiz-adv-x="531" 
d="M100 696l-23 47c32 27 82 56 159 56c124 0 244 -119 244 -387c0 -245 -85 -426 -252 -426c-124 0 -185 113 -185 235c0 161 100 262 209 262c91 0 147 -65 164 -97h1c1 12 1 32 1 45c0 190 -87 314 -188 314c-60 0 -102 -26 -130 -49zM233 40h2c97 0 160 128 174 276
c-16 47 -70 114 -148 114c-84 0 -154 -93 -154 -208c0 -107 50 -182 126 -182z" />
    <glyph glyph-name="product" unicode="&#x220f;" horiz-adv-x="681" 
d="M653 659h-107v-758h-63v758h-286v-758h-63v758h-108v60h627v-60z" />
    <glyph glyph-name="summation" unicode="&#x2211;" 
d="M519 -99h-496v44l269 363l-257 365v46h468v-56h-379v-4l242 -341l-261 -352v-3h414v-62z" />
    <glyph glyph-name="uni2219" unicode="&#x2219;" horiz-adv-x="302" 
d="M95 349v14c17 15 33 32 50 50h13c13 -17 33 -34 49 -50v-15c-14 -10 -39 -34 -50 -48h-13c-17 16 -31 33 -49 49z" />
    <glyph glyph-name="radical" unicode="&#x221a;" horiz-adv-x="560" 
d="M557 853l-218 -1009h-58l-160 484l-73 -28l-14 41l128 50l130 -391c6 -24 13 -54 17 -73l1 -1c3 19 8 48 13 73l185 854h49z" />
    <glyph glyph-name="infinity" unicode="&#x221e;" horiz-adv-x="772" 
d="M721 300v-1c0 -95 -72 -156 -150 -156c-64 0 -113 41 -184 119c-52 -59 -107 -119 -189 -119c-80 0 -147 67 -147 152c0 89 65 156 154 156c75 0 133 -59 186 -121c53 59 104 121 187 121c87 -1 143 -63 143 -151zM204 186h1c66 0 116 64 158 108
c-45 54 -92 115 -165 115c-65 0 -102 -54 -101 -115c0 -60 43 -108 107 -108zM573 409h-1c-68 0 -123 -75 -158 -111c67 -73 106 -112 161 -112c64 0 101 56 101 110c0 72 -44 113 -103 113z" />
    <glyph glyph-name="integral" unicode="&#x222b;" horiz-adv-x="349" 
d="M332 862l-13 -46c-8 6 -23 11 -36 11c-16 0 -36 -7 -50 -24c-26 -32 -34 -86 -34 -187c0 -159 12 -358 12 -522c0 -114 -20 -174 -44 -209c-20 -32 -56 -48 -92 -48c-25 0 -51 9 -62 17l13 47c8 -4 25 -12 44 -12c17 0 35 9 47 25c19 26 35 73 35 180
c0 166 -13 368 -13 529c0 111 13 174 51 214c24 27 57 39 89 39c20 0 42 -7 53 -14z" />
    <glyph glyph-name="approxequal" unicode="&#x2248;" horiz-adv-x="557" 
d="M481 435l28 -24c-25 -51 -64 -94 -125 -94c-41 0 -69 16 -117 42c-31 18 -60 34 -93 34c-46 0 -74 -34 -99 -75l-29 23c30 59 78 95 134 95c49 0 85 -28 112 -42c35 -19 59 -35 95 -35c40 0 67 26 94 76zM481 268l28 -23c-25 -51 -64 -94 -125 -94c-41 0 -68 16 -117 42
c-31 18 -60 35 -93 35c-47 0 -74 -36 -99 -76l-29 23c30 59 78 95 134 95c49 0 85 -27 112 -41c34 -19 59 -35 95 -35c41 0 66 25 94 74z" />
    <glyph glyph-name="notequal" unicode="&#x2260;" horiz-adv-x="557" 
d="M393 509l-46 -99h158v-44h-176l-68 -147h244v-44h-261l-54 -117l-35 16l46 101h-150v44h169l67 147h-236v44h254l53 115z" />
    <glyph glyph-name="lessequal" unicode="&#x2264;" horiz-adv-x="557" 
d="M502 102l-445 227v46l445 226v-53l-397 -194v-2l397 -196v-54zM505 15h-454v45h454v-45z" />
    <glyph glyph-name="greaterequal" unicode="&#x2265;" horiz-adv-x="557" 
d="M57 601l446 -227v-45l-445 -227v54l396 194v3l-397 195v53zM505 15h-453v45h453v-45z" />
    <glyph glyph-name="lozenge" unicode="&#x25ca;" horiz-adv-x="561" 
d="M505 359l-200 -403h-52l-198 403l200 403h52zM446 357l-146 295c-8 17 -15 39 -19 53h-3c-4 -15 -10 -34 -19 -53l-145 -291l147 -297c9 -21 15 -40 18 -52h3c3 13 11 38 18 52z" />
    <glyph glyph-name="uni00A0" unicode="&#xa0;" horiz-adv-x="240" 
 />
    <glyph glyph-name="uni00AD" unicode="&#xad;" horiz-adv-x="375" 
d="M37 187v61h301v-61h-301z" />
    <glyph glyph-name="uni02C9" unicode="&#x2c9;" horiz-adv-x="333" 
d="M22 566v54h288v-54h-288z" />
    <glyph glyph-name="uni2215" unicode="&#x2215;" horiz-adv-x="135" 
d="M-181 -45l436 773h61l-440 -773h-57z" />
    <glyph glyph-name="uni03A9" unicode="&#x3a9;" horiz-adv-x="704" 
d="M199 54v3c-72 68 -135 182 -135 328c0 208 127 345 291 345c172 0 284 -156 284 -341c0 -152 -69 -271 -137 -332v-3h150v-54h-230v40c78 55 152 175 152 337c0 136 -74 298 -220 298c-138 0 -226 -133 -226 -299c0 -153 76 -283 152 -336v-40h-230v54h149z" />
    <glyph glyph-name="o.superior" horiz-adv-x="365" 
d="M187 550c82 0 155 -71 155 -155c0 -93 -71 -157 -158 -157c-112 0 -160 91 -160 155c0 88 70 157 163 157zM177 516c-66 0 -106 -49 -106 -110c0 -68 53 -134 110 -134c102 0 115 78 115 106c0 68 -52 138 -119 138z" />
    <glyph glyph-name="uni2206" unicode="&#x2206;" horiz-adv-x="631" 
d="M32 0v47l249 691h73l245 -691v-47h-567zM96 53h435l-148 414c-18 55 -54 142 -67 191h-4c-9 -41 -42 -121 -59 -176z" />
    <glyph glyph-name="fi" unicode="&#xfb01;" 
d="M97 433v30c1 99 16 168 63 216c35 35 84 54 142 54c59 0 96 -23 139 -58l-29 -92l-18 3c-2 52 -36 95 -102 95c-30 0 -63 -7 -92 -37c-30 -30 -37 -84 -37 -121v-90h180c8 0 63 3 90 16l14 -1v-378c0 -23 5 -48 32 -55v-15h-135v15c27 5 36 24 36 49v262
c0 34 -19 54 -47 54h-170v-304c0 -23 5 -56 34 -61v-15h-136v15c22 4 35 22 35 45v320h-80v53h81z" />
    <glyph glyph-name="fl" unicode="&#xfb02;" 
d="M382 433v201c-19 32 -52 47 -90 47c-32 0 -67 -11 -90 -33c-31 -31 -39 -81 -39 -145v-70h219zM17 433h81c0 73 2 184 60 243c37 37 85 57 146 57c40 0 76 -14 106 -35l23 35h16v-672c0 -24 11 -41 31 -46v-15h-135v15c23 3 37 25 37 49v317h-218v-309
c0 -26 6 -50 34 -57v-15h-137v15c25 5 36 26 36 56v310h-80v52z" />
    <glyph glyph-name="onesuperior" unicode="&#xb9;" horiz-adv-x="365" 
d="M129 669v11c32 16 50 29 72 50h11v-354c0 -12 11 -24 28 -23v-8h-111v10c27 2 31 25 31 42v229c0 18 -3 40 -31 43z" />
    <glyph glyph-name="threesuperior" unicode="&#xb3;" horiz-adv-x="365" 
d="M113 625l-42 41c22 39 61 64 110 64c62 0 105 -42 105 -86c0 -36 -18 -61 -57 -80c59 -24 83 -53 83 -100c0 -69 -59 -127 -143 -127c-47 0 -88 16 -116 39l27 61l9 -2c10 -43 42 -59 77 -59c54 0 86 36 86 81c0 56 -43 82 -115 82v41c49 2 88 16 88 57
c0 25 -16 53 -54 53c-29 0 -53 -17 -53 -39c0 -6 1 -11 4 -17z" />
    <glyph glyph-name="twosuperior" unicode="&#xb2;" horiz-adv-x="365" 
d="M140 592l-73 45c23 57 70 93 131 93c64 0 116 -46 116 -93c0 -57 -41 -102 -83 -143l-97 -94h144c15 0 31 7 38 25h12l-21 -80h-257v35c24 23 110 107 159 166c39 47 46 66 46 85c0 33 -25 56 -62 56c-38 0 -62 -21 -62 -49c0 -12 4 -25 15 -38z" />
    <glyph glyph-name="uni2010" unicode="&#x2010;" horiz-adv-x="375" 
d="M37 187v61h301v-61h-301z" />
    </font>
</defs>
</svg>
